<?xml version="1.0" encoding="UTF-8" standalone="no"?>
<!-- Created with Inkscape (http://www.inkscape.org/) -->

<svg
   xmlns:dc="http://purl.org/dc/elements/1.1/"
   xmlns:cc="http://creativecommons.org/ns#"
   xmlns:rdf="http://www.w3.org/1999/02/22-rdf-syntax-ns#"
   xmlns:svg="http://www.w3.org/2000/svg"
   xmlns="http://www.w3.org/2000/svg"
   xmlns:sodipodi="http://sodipodi.sourceforge.net/DTD/sodipodi-0.dtd"
   xmlns:inkscape="http://www.inkscape.org/namespaces/inkscape"
   width="210mm"
   height="297mm"
   viewBox="0 0 210 297"
   version="1.1"
   id="svg8"
   inkscape:version="0.92.3 (2405546, 2018-03-11)"
   sodipodi:docname="body.svg">
  <defs
     id="defs2" />
  <sodipodi:namedview
     id="base"
     pagecolor="#ffffff"
     bordercolor="#666666"
     borderopacity="1.0"
     inkscape:pageopacity="0.0"
     inkscape:pageshadow="2"
     inkscape:zoom="1.4979406"
     inkscape:cx="426.45035"
     inkscape:cy="826.39959"
     inkscape:document-units="mm"
     inkscape:current-layer="layer1"
     showgrid="false"
     inkscape:window-width="1440"
     inkscape:window-height="837"
     inkscape:window-x="-8"
     inkscape:window-y="-8"
     inkscape:window-maximized="1" />
  <metadata
     id="metadata5">
    <rdf:RDF>
      <cc:Work
         rdf:about="">
        <dc:format>image/svg+xml</dc:format>
        <dc:type
           rdf:resource="http://purl.org/dc/dcmitype/StillImage" />
        <dc:title />
      </cc:Work>
    </rdf:RDF>
  </metadata>
  <g
     inkscape:label="圖層 1"
     inkscape:groupmode="layer"
     id="layer1">
    <path
       style="opacity:1;fill:none;fill-opacity:1;stroke:#000000;stroke-width:0.55580735;stroke-linejoin:round;stroke-miterlimit:4;stroke-dasharray:none;stroke-dashoffset:0;stroke-opacity:1"
       d="M 163.49023 298.56445 L 163.49023 298.89453 L 153.15234 298.89453 L 153.15234 298.91602 L 129.10938 298.91602 L 129.10938 305.89453 C 122.06385 305.89907 126.11355 305.91797 118.47266 305.91797 L 118.47266 362.27344 C 146.98148 362.21183 112.474 362.56836 129.10156 362.56836 L 129.10156 370.17578 L 129.56641 370.17578 L 129.56641 373.44141 C 129.56641 379.12674 134.1428 383.70508 139.82812 383.70508 L 375.86328 383.70508 C 381.54862 383.70508 386.12695 379.12674 386.12695 373.44141 L 386.12695 367.26367 C 386.12695 366.48674 386.03319 365.73254 385.87109 365.00586 L 385.87109 362.57422 C 393.39674 362.52433 390.05073 362.28806 397.00586 362.30469 L 397.00586 305.88867 L 385.85547 305.88867 L 385.85547 298.92578 L 362.26367 298.92578 L 362.26367 298.89258 L 353.12109 298.89258 L 353.12109 298.56445 L 163.49023 298.56445 z "
       transform="scale(0.26458333)"
       id="rect4425" />
    <rect
       style="fill:none;fill-opacity:1;stroke:#000000;stroke-width:0.17542225;stroke-miterlimit:4;stroke-dasharray:none;stroke-opacity:1"
       id="rect1609"
       width="51.824577"
       height="1.5245777"
       x="42.310078"
       y="97.042213" />
    <path
       style="opacity:1;fill:none;fill-opacity:1;stroke:#000000;stroke-width:0.14254341;stroke-linejoin:round;stroke-miterlimit:4;stroke-dasharray:none;stroke-dashoffset:0;stroke-opacity:1"
       d="m 40.763404,54.294365 c -1.184365,0 -2.137855,0.996916 -2.137855,2.235523 v 2.68614 1.519804 3.493844 3.218926 3.467489 c 0,0.220485 0.0315,0.433155 0.08785,0.634069 -0.03436,0.164906 -0.05271,0.336198 -0.05271,0.511598 v 2.113047 c 0,1.371986 1.104349,2.476852 2.476336,2.476852 h 56.95983 c 1.371986,0 2.476845,-1.104866 2.476845,-2.476852 v -2.113047 c 0,-0.269351 -0.0442,-0.528098 -0.12299,-0.770496 0.0196,-0.122177 0.0326,-0.246986 0.0326,-0.375171 v -4.70204 -1.987992 -5.010031 -2.68614 c 0,-1.238607 -0.953482,-2.235523 -2.137853,-2.235523 z"
       id="path2801"
       inkscape:connector-curvature="0" />
    <rect
       y="72.257248"
       x="43.642536"
       height="1.5245777"
       width="51.824577"
       id="rect2827"
       style="fill:none;fill-opacity:1;stroke:#000000;stroke-width:0.17542225;stroke-miterlimit:4;stroke-dasharray:none;stroke-opacity:1" />
    <rect
       style="opacity:1;fill:none;fill-opacity:1;stroke:#000000;stroke-width:0.09798727;stroke-linejoin:round;stroke-miterlimit:4;stroke-dasharray:none;stroke-dashoffset:0;stroke-opacity:1"
       id="rect1012"
       width="19.902012"
       height="2.9020128"
       x="42.271797"
       y="80.781097" />
    <rect
       y="55.978149"
       x="43.586105"
       height="2.9369693"
       width="8.1369696"
       id="rect1030"
       style="opacity:1;fill:none;fill-opacity:1;stroke:#000000;stroke-width:0.06303076;stroke-linejoin:round;stroke-miterlimit:4;stroke-dasharray:none;stroke-dashoffset:0;stroke-opacity:1" />
    <path
       style="opacity:1;fill:none;fill-opacity:1;stroke:#000000;stroke-width:0.08168723;stroke-linejoin:round;stroke-miterlimit:4;stroke-dasharray:none;stroke-dashoffset:0;stroke-opacity:1"
       d="m 113.69846,91.736664 h 15.91841 3.00034 v -19.90059 h -3.00034 v 11.98221 h -15.91841 z"
       id="rect1028"
       inkscape:connector-curvature="0" />
    <circle
       transform="matrix(0,1,1,0,0,0)"
       style="fill:none;fill-rule:evenodd;stroke:#000000;stroke-width:0.08800796;stroke-miterlimit:4;stroke-dasharray:none;stroke-opacity:1"
       id="circle1037"
       cx="89.320732"
       cy="117.49651"
       r="0.95599604" />
    <circle
       style="fill:none;fill-rule:evenodd;stroke:#000000;stroke-width:0.08800796;stroke-miterlimit:4;stroke-dasharray:none;stroke-opacity:1"
       id="circle934"
       cx="68.649467"
       cy="82.037109"
       r="0.95599604" />
    <circle
       style="fill:none;fill-rule:evenodd;stroke:#000000;stroke-width:0.08800796;stroke-miterlimit:4;stroke-dasharray:none;stroke-opacity:1"
       id="circle936"
       cx="69.98159"
       cy="57.251633"
       r="0.95599604" />
    <rect
       style="fill:none;stroke:#000000;stroke-width:0.11885758;stroke-miterlimit:4;stroke-dasharray:none;stroke-opacity:1"
       id="rect871"
       width="2.8811424"
       height="11.881143"
       x="99.281425"
       y="82.575348" />
    <rect
       y="82.575531"
       x="34.281429"
       height="11.881143"
       width="2.8811424"
       id="rect873"
       style="fill:none;stroke:#000000;stroke-width:0.11885758;stroke-miterlimit:4;stroke-dasharray:none;stroke-opacity:1" />
    <path
       style="fill:none;stroke:#000000;stroke-width:0.08885758;stroke-miterlimit:4;stroke-dasharray:none;stroke-opacity:1"
       d="m 109.07524,58.105684 v 2.91145 h 3.55327 v 7.74475 h 11.80496 v -7.74475 h 3.55276 v -2.91145 z"
       id="rect887"
       inkscape:connector-curvature="0" />
    <circle
       transform="scale(-1,1)"
       style="fill:none;fill-rule:evenodd;stroke:#000000;stroke-width:0.08800796;stroke-miterlimit:4;stroke-dasharray:none;stroke-opacity:1"
       id="circle1626"
       cx="-118.18608"
       cy="65.721733"
       r="0.95599604" />
    <path
       inkscape:connector-curvature="0"
       id="path1655"
       d="m 109.07524,70.276574 v 2.91147 h 3.55327 v 7.74475 h 11.80496 v -7.74475 h 3.55276 v -2.91147 z"
       style="fill:none;stroke:#000000;stroke-width:0.08885758;stroke-miterlimit:4;stroke-dasharray:none;stroke-opacity:1" />
    <circle
       r="0.95599604"
       cy="77.892563"
       cx="-118.18608"
       id="circle1657"
       style="fill:none;fill-rule:evenodd;stroke:#000000;stroke-width:0.08800796;stroke-miterlimit:4;stroke-dasharray:none;stroke-opacity:1"
       transform="scale(-1,1)" />
    <circle
       r="0.95599604"
       cy="82.037109"
       cx="79.232811"
       id="circle2306"
       style="fill:none;fill-rule:evenodd;stroke:#000000;stroke-width:0.08800796;stroke-miterlimit:4;stroke-dasharray:none;stroke-opacity:1" />
    <circle
       r="0.95599604"
       cy="57.251633"
       cx="80.564934"
       id="circle2308"
       style="fill:none;fill-rule:evenodd;stroke:#000000;stroke-width:0.08800796;stroke-miterlimit:4;stroke-dasharray:none;stroke-opacity:1" />
    <circle
       r="0.95599604"
       cy="66.508133"
       cx="-137.06532"
       id="circle2282"
       style="fill:none;fill-rule:evenodd;stroke:#000000;stroke-width:0.08800796;stroke-miterlimit:4;stroke-dasharray:none;stroke-opacity:1"
       transform="scale(-1,1)" />
    <rect
       y="64.849205"
       x="131.24467"
       height="4.898952"
       width="11.898952"
       id="rect2284"
       style="fill:none;stroke:#000000;stroke-width:0.10104797;stroke-miterlimit:4;stroke-dasharray:none;stroke-opacity:1" />
    <circle
       transform="scale(-1,1)"
       style="fill:none;fill-rule:evenodd;stroke:#000000;stroke-width:0.08800796;stroke-miterlimit:4;stroke-dasharray:none;stroke-opacity:1"
       id="circle2309"
       cx="-136.72572"
       cy="58.244385"
       r="0.95599604" />
    <rect
       style="fill:none;stroke:#000000;stroke-width:0.10104797;stroke-miterlimit:4;stroke-dasharray:none;stroke-opacity:1"
       id="rect2311"
       width="11.898952"
       height="4.898952"
       x="130.90508"
       y="56.585464" />
    <circle
       transform="scale(-1,1)"
       style="fill:none;fill-rule:evenodd;stroke:#000000;stroke-width:0.08800796;stroke-miterlimit:4;stroke-dasharray:none;stroke-opacity:1"
       id="circle3450"
       cx="-141.30563"
       cy="82.50013"
       r="0.95599604" />
    <rect
       style="fill:none;stroke:#000000;stroke-width:0.10104797;stroke-miterlimit:4;stroke-dasharray:none;stroke-opacity:1"
       id="rect3452"
       width="11.898952"
       height="4.898952"
       x="135.48497"
       y="80.841209" />
    <circle
       r="0.95599604"
       cy="74.236397"
       cx="-140.96602"
       id="circle3454"
       style="fill:none;fill-rule:evenodd;stroke:#000000;stroke-width:0.08800796;stroke-miterlimit:4;stroke-dasharray:none;stroke-opacity:1"
       transform="scale(-1,1)" />
    <rect
       y="72.577477"
       x="135.14537"
       height="4.898952"
       width="11.898952"
       id="rect3456"
       style="fill:none;stroke:#000000;stroke-width:0.10104797;stroke-miterlimit:4;stroke-dasharray:none;stroke-opacity:1" />
    <path
       inkscape:connector-curvature="0"
       style="fill:none;fill-opacity:1;stroke:#000000;stroke-width:0.11112169;stroke-miterlimit:4;stroke-dasharray:none;stroke-opacity:1"
       d="m 152.33324,56.856494 -1.45417,5.3e-4 c -0.0411,0 -0.0806,0.006 -0.11989,0.0119 h -0.0615 v 0.0124 c -0.32514,0.081 -0.56534,0.37154 -0.56534,0.72244 v 4.33617 c 0,0.35089 0.2402,0.64145 0.56534,0.72243 v 1.13688 h -0.0713 c 0.0462,0.16456 0.0729,0.33754 0.0729,0.51729 v 17.50332 a 7.4064326,6.8306976 0 0 0 -0.14934,1.36271 7.4064326,6.8306976 0 0 0 0.14934,1.33273 v 2.04019 c -0.003,0.002 -0.006,0.004 -0.01,0.006 h 0.84077 a 7.4064326,6.8306976 0 0 0 6.42597,3.45198 7.4064326,6.8306976 0 0 0 6.43061,-3.45198 h 0.69661 0.13694 v -2.05311 a 7.4064326,6.8306976 0 0 0 0.14263,-1.3255 7.4064326,6.8306976 0 0 0 -0.14263,-1.30328 v -17.56276 c 0,-0.17974 0.0266,-0.35272 0.0729,-0.51728 h -0.0538 v -1.14464 c 0.31239,-0.0894 0.54106,-0.37281 0.54106,-0.71468 v -4.33619 c 0,-0.34187 -0.22867,-0.62525 -0.54106,-0.71468 v -0.0207 h -0.0858 c -0.0393,-0.006 -0.0788,-0.0119 -0.11989,-0.0119 h -1.45468 c -0.0411,0 -0.0806,0.006 -0.11989,0.0119 h -11.00604 c -0.0391,-0.006 -0.0789,-0.0119 -0.11989,-0.0119 z"
       id="rect2299-6" />
    <path
       inkscape:connector-curvature="0"
       style="fill:none;fill-opacity:1;stroke:#000000;stroke-width:0.1;stroke-miterlimit:4;stroke-dasharray:none;stroke-opacity:1"
       d="m 154.60388,62.693294 v 0.0475 h -2.54817 v 22.45651 h 11.87783 v -22.45651 h -2.6386 v -0.0475 z"
       id="path2301-8" />
    <circle
       r="0.95599604"
       cy="59.500786"
       cx="-157.85522"
       id="circle2303-9"
       style="fill:none;fill-rule:evenodd;stroke:#000000;stroke-width:0.08800796;stroke-miterlimit:4;stroke-dasharray:none;stroke-opacity:1"
       transform="scale(-1,1)" />
    <circle
       transform="scale(-1,1)"
       style="fill:none;fill-rule:evenodd;stroke:#000000;stroke-width:0.08800796;stroke-miterlimit:4;stroke-dasharray:none;stroke-opacity:1"
       id="circle2307-1"
       cx="-157.85522"
       cy="88.404778"
       r="0.95599604" />
    <path
       id="path4153"
       d="m 170.38482,57.098794 -1.45417,5.3e-4 c -0.0411,0 -0.0806,0.006 -0.11989,0.0119 h -0.0615 v 0.0124 c -0.32514,0.081 -0.56534,0.37154 -0.56534,0.72244 v 4.33617 c 0,0.35089 0.2402,0.64145 0.56534,0.72243 v 1.13688 h -0.0713 c 0.0462,0.16456 0.0729,0.33754 0.0729,0.51729 v 17.50332 a 7.4064326,6.8306976 0 0 0 -0.14934,1.36271 7.4064326,6.8306976 0 0 0 0.14934,1.33273 v 2.04019 c -0.003,0.002 -0.006,0.004 -0.01,0.006 h 0.84077 a 7.4064326,6.8306976 0 0 0 6.42597,3.45198 7.4064326,6.8306976 0 0 0 6.43061,-3.45198 h 0.6966 0.13694 v -2.05311 a 7.4064326,6.8306976 0 0 0 0.14263,-1.3255 7.4064326,6.8306976 0 0 0 -0.14263,-1.30328 v -17.56276 c 0,-0.17974 0.0266,-0.35272 0.0729,-0.51728 h -0.0538 v -1.14464 c 0.31238,-0.0894 0.54105,-0.37281 0.54105,-0.71468 v -4.33619 c 0,-0.34187 -0.22867,-0.62525 -0.54105,-0.71468 v -0.0207 h -0.0858 c -0.0393,-0.006 -0.0788,-0.0119 -0.11989,-0.0119 h -1.45469 c -0.0411,0 -0.0806,0.006 -0.11989,0.0119 h -11.00604 c -0.0391,-0.006 -0.0789,-0.0119 -0.11989,-0.0119 z"
       style="fill:none;fill-opacity:1;stroke:#000000;stroke-width:0.11112169;stroke-miterlimit:4;stroke-dasharray:none;stroke-opacity:1"
       inkscape:connector-curvature="0" />
    <path
       id="path4155"
       d="m 172.65546,62.935594 v 0.0475 h -2.54816 v 22.45651 h 11.87782 v -22.45651 h -2.6386 v -0.0475 z"
       style="fill:none;fill-opacity:1;stroke:#000000;stroke-width:0.1;stroke-miterlimit:4;stroke-dasharray:none;stroke-opacity:1"
       inkscape:connector-curvature="0" />
    <circle
       transform="scale(-1,1)"
       style="fill:none;fill-rule:evenodd;stroke:#000000;stroke-width:0.08800796;stroke-miterlimit:4;stroke-dasharray:none;stroke-opacity:1"
       id="circle4157"
       cx="-175.9068"
       cy="59.743073"
       r="0.95599604" />
    <circle
       r="0.95599604"
       cy="88.647087"
       cx="-175.9068"
       id="circle4159"
       style="fill:none;fill-rule:evenodd;stroke:#000000;stroke-width:0.08800796;stroke-miterlimit:4;stroke-dasharray:none;stroke-opacity:1"
       transform="scale(-1,1)" />
    <path
       style="fill:none;stroke:#000000;stroke-width:0.13434008;stroke-miterlimit:4;stroke-dasharray:none;stroke-opacity:1"
       d="M 113.69846,93.324165 V 94.3086 h -3.01532 v 10.86601 h 3.01532 v 0.98444 h 67.67701 v -0.98444 h 3.01531 V 94.3086 h -3.01531 v -0.984435 z"
       id="rect1686"
       inkscape:connector-curvature="0" />
  </g>
</svg>
