<?xml version="1.0" encoding="UTF-8" standalone="no"?>
<!-- Created with Inkscape (http://www.inkscape.org/) -->

<svg
   xmlns:dc="http://purl.org/dc/elements/1.1/"
   xmlns:cc="http://creativecommons.org/ns#"
   xmlns:rdf="http://www.w3.org/1999/02/22-rdf-syntax-ns#"
   xmlns:svg="http://www.w3.org/2000/svg"
   xmlns="http://www.w3.org/2000/svg"
   xmlns:sodipodi="http://sodipodi.sourceforge.net/DTD/sodipodi-0.dtd"
   xmlns:inkscape="http://www.inkscape.org/namespaces/inkscape"
   width="210mm"
   height="297mm"
   viewBox="0 0 210 297"
   version="1.1"
   id="svg1902"
   inkscape:version="0.92.3 (2405546, 2018-03-11)"
   sodipodi:docname="口 間齒輪_3mm.svg">
  <sodipodi:namedview
     id="base"
     pagecolor="#ffffff"
     bordercolor="#666666"
     borderopacity="1.0"
     inkscape:pageopacity="0.0"
     inkscape:pageshadow="2"
     inkscape:zoom="1.4019567"
     inkscape:cx="275.58346"
     inkscape:cy="1030.1553"
     inkscape:document-units="mm"
     inkscape:current-layer="layer1"
     showgrid="false"
     inkscape:window-width="1440"
     inkscape:window-height="837"
     inkscape:window-x="-8"
     inkscape:window-y="-8"
     inkscape:window-maximized="1" />
  <defs
     id="defs1896" />
  <metadata
     id="metadata1899">
    <rdf:RDF>
      <cc:Work
         rdf:about="">
        <dc:format>image/svg+xml</dc:format>
        <dc:type
           rdf:resource="http://purl.org/dc/dcmitype/StillImage" />
        <dc:title></dc:title>
      </cc:Work>
    </rdf:RDF>
  </metadata>
  <g
     id="layer1"
     inkscape:groupmode="layer"
     inkscape:label="圖層 1">
    <circle
       style="fill:none;stroke:#000000;stroke-width:0.06275614;stroke-miterlimit:4;stroke-dasharray:none;stroke-opacity:1"
       id="circle2681"
       cx="37.229202"
       cy="39.765892"
       r="0.96862191"
       transform="rotate(-3.2870846)" />
    <g
       id="g2878"
       inkscape:label="Gear62"
       transform="translate(39.44811,37.565786)">
      <path
         id="path2876"
         style="fill:none;stroke:#000000;stroke-width:0.26458332"
         d="m 28.62142,-1.23132 0.9719,0.4814 0.9639,0.57074 v 0.35836 l -0.9639,0.57074 -0.9719,0.4814 -0.02228,0.43926 0.91821,0.57725 0.90122,0.66534 -0.03625,0.35651 -1.0167,0.4703 -1.01562,0.3806 -0.0666,0.43475 0.8551,0.66719 0.82928,0.7531 -0.07213,0.35101 -1.05907,0.36503 -1.04891,0.2759 -0.11024,0.42578 0.78322,0.75028 0.74884,0.83313 -0.10728,0.34191 -1.09056,0.25602 -1.07145,0.16837 -0.15275,0.41244 0.7033,0.82566 0.66071,0.90461 -0.14132,0.32932 -1.11086,0.14436 -1.08299,0.05912 -0.19369,0.39487 0.61616,0.89258 0.5658,0.96681 -0.17391,0.31332 -1.11977,0.03125 -1.0834,-0.05076 -0.23265,0.37325 0.52269,0.95034 0.46509,1.01909 -0.20472,0.29412 -1.11718,-0.0822 -1.07271,-0.1601 -0.26922,0.3478 0.42387,0.99834 0.3596,1.06091 -0.23342,0.27191 -1.10314,-0.19481 -1.05101,-0.2678 -0.30302,0.31878 0.32069,1.03609 0.25043,1.09186 -0.25973,0.24689 -1.07777,-0.30541 -1.01852,-0.37275 -0.33372,0.28648 0.21423,1.06323 0.13868,1.11159 -0.28338,0.21935 -1.04134,-0.41288 -0.97559,-0.47389 -0.36099,0.25126 0.10557,1.07944 0.02551,1.11991 -0.30412,0.18956 -0.99422,-0.51611 -0.92265,-0.57016 -0.38455,0.21345 -0.0042,1.08459 -0.08792,1.11675 -0.32173,0.15781 -0.93692,-0.61404 -0.86022,-0.66058 -0.40418,0.17345 -0.11389,1.0786 -0.20044,1.10212 -0.33605,0.12446 L 9.57468,28.01165 8.78569,27.26744 8.36604,27.3991 8.14362,28.46065 7.8327,29.53684 7.48579,29.62666 6.69166,28.83658 5.98202,28.01637 5.5512,28.10491 5.22252,29.1385 4.80432,30.17772 4.4501,30.23198 3.73998,29.36562 3.11696,28.47782 2.67939,28.52231 2.24783,29.51735 1.72664,30.50893 1.36875,30.52708 0.74992,29.59332 0.21991,28.64705 h -0.43982 l -0.53001,0.94627 -0.61883,0.93376 -0.35789,-0.01815 -0.52119,-0.99158 -0.43156,-0.99504 -0.43757,-0.04449 -0.62302,0.8878 -0.71012,0.86636 -0.35422,-0.05426 -0.4182,-1.03922 -0.32868,-1.03359 -0.43082,-0.08854 -0.70964,0.82021 -0.79413,0.79008 -0.34691,-0.08982 -0.31092,-1.07619 -0.22242,-1.06155 -0.41965,-0.13166 -0.78899,0.74421 -0.86998,0.70568 -0.33605,-0.12446 -0.20044,-1.10212 -0.11389,-1.0786 -0.40418,-0.17345 -0.86022,0.66058 -0.93692,0.61404 -0.32173,-0.15781 -0.08792,-1.11675 -0.0042,-1.08459 -0.38455,-0.21345 -0.92265,0.57016 -0.99422,0.51611 -0.30412,-0.18956 0.02551,-1.11991 0.10557,-1.07944 -0.36099,-0.25126 -0.97559,0.47389 -1.04134,0.41288 -0.28338,-0.21935 0.13868,-1.11159 0.21423,-1.06323 -0.33372,-0.28648 -1.01852,0.37275 -1.07777,0.30541 -0.25973,-0.24689 0.25043,-1.09186 0.32069,-1.03609 -0.30302,-0.31878 -1.05101,0.2678 -1.10314,0.19481 -0.23342,-0.27191 0.3596,-1.06091 0.42387,-0.99834 -0.26922,-0.3478 -1.07271,0.1601 -1.11718,0.0822 -0.20472,-0.29412 0.46509,-1.01909 0.52269,-0.95034 -0.23265,-0.37325 -1.0834,0.05076 -1.11977,-0.03125 -0.17391,-0.31332 0.5658,-0.96681 0.61616,-0.89258 -0.19369,-0.39487 -1.08299,-0.05912 -1.11086,-0.14436 -0.14132,-0.32932 0.66071,-0.90461 0.7033,-0.82566 -0.15275,-0.41244 -1.07145,-0.16837 -1.09056,-0.25602 -0.10728,-0.34191 0.74884,-0.83313 0.78322,-0.75028 -0.11024,-0.42578 -1.04891,-0.2759 -1.05907,-0.36503 -0.07213,-0.35101 0.82928,-0.7531 0.8551,-0.66719 -0.0666,-0.43475 -1.01562,-0.3806 -1.0167,-0.4703 -0.03625,-0.35651 0.90122,-0.66534 0.91821,-0.57725 -0.02228,-0.43926 -0.9719,-0.4814 -0.9639,-0.57074 v -0.35836 l 0.9639,-0.57074 0.9719,-0.4814 0.02228,-0.43926 -0.91821,-0.57725 -0.90122,-0.66534 0.03625,-0.35651 1.0167,-0.4703 1.01562,-0.3806 0.0666,-0.43475 -0.8551,-0.66719 -0.82928,-0.7531 0.07213,-0.35101 1.05907,-0.36503 1.04891,-0.2759 0.11024,-0.42578 -0.78322,-0.75028 -0.74884,-0.83313 0.10728,-0.34191 1.09056,-0.25602 1.07145,-0.16837 0.15275,-0.41244 -0.7033,-0.82566 -0.66071,-0.90461 0.14132,-0.32932 1.11086,-0.14436 1.08299,-0.05912 0.19369,-0.39487 -0.61616,-0.89258 -0.5658,-0.96681 0.17391,-0.31332 1.11977,-0.03125 1.0834,0.05076 0.23265,-0.37325 -0.52269,-0.95034 -0.46509,-1.01909 0.20472,-0.29412 1.11718,0.0822 1.07271,0.1601 0.26922,-0.3478 -0.42387,-0.99834 -0.3596,-1.06091 0.23342,-0.27191 1.10314,0.19481 1.05101,0.2678 0.30302,-0.31878 -0.32069,-1.03609 -0.25043,-1.09186 0.25973,-0.24689 1.07777,0.30541 1.01852,0.37275 0.33372,-0.28648 -0.21423,-1.06323 -0.13868,-1.11159 0.28338,-0.21935 1.04134,0.41288 0.97559,0.47389 0.36099,-0.25126 -0.10557,-1.07944 -0.02551,-1.11991 0.30412,-0.18956 0.99422,0.51611 0.92265,0.57016 0.38455,-0.21345 0.0042,-1.08459 0.08792,-1.11675 0.32173,-0.15781 0.93692,0.61404 0.86022,0.66058 0.40418,-0.17345 0.11389,-1.0786 0.20044,-1.10212 0.33605,-0.12446 0.86998,0.70568 0.78899,0.74421 0.41965,-0.13166 0.22242,-1.06155 0.31092,-1.07619 0.34691,-0.08982 0.79413,0.79008 0.70964,0.82021 0.43082,-0.08854 0.32868,-1.03359 0.4182,-1.03922 0.35422,-0.05426 0.71012,0.86636 0.62302,0.8878 0.43757,-0.04449 0.43156,-0.99504 0.52119,-0.99158 0.35789,-0.01815 0.61883,0.93376 0.53001,0.94627 h 0.43982 l 0.53001,-0.94627 0.61883,-0.93376 0.35789,0.01815 0.52119,0.99158 0.43156,0.99504 0.43757,0.04449 0.62302,-0.8878 0.71012,-0.86636 0.35422,0.05426 0.4182,1.03922 0.32868,1.03359 0.43082,0.08854 0.70964,-0.82021 0.79413,-0.79008 0.34691,0.08982 0.31092,1.07619 0.22242,1.06155 0.41965,0.13166 0.78899,-0.74421 0.86998,-0.70568 0.33605,0.12446 0.20044,1.10212 0.11389,1.0786 0.40418,0.17345 0.86022,-0.66058 0.93692,-0.61404 0.32173,0.15781 0.08792,1.11675 0.0042,1.08459 0.38455,0.21345 0.92265,-0.57016 0.99422,-0.51611 0.30412,0.18956 -0.02551,1.11991 -0.10557,1.07944 0.36099,0.25126 0.97559,-0.47389 1.04134,-0.41288 0.28338,0.21935 -0.13868,1.11159 -0.21423,1.06323 0.33372,0.28648 1.01852,-0.37275 1.07777,-0.30541 0.25973,0.24689 -0.25043,1.09186 -0.32069,1.03609 0.30302,0.31878 1.05101,-0.2678 1.10314,-0.19481 0.23342,0.27191 -0.3596,1.06091 -0.42387,0.99834 0.26922,0.3478 1.07271,-0.1601 1.11718,-0.0822 0.20472,0.29412 -0.46509,1.01909 -0.52269,0.95034 0.23265,0.37325 1.0834,-0.05076 1.11977,0.03125 0.17391,0.31332 -0.5658,0.96681 -0.61616,0.89258 0.19369,0.39487 1.08299,0.05912 1.11086,0.14436 0.14132,0.32932 -0.66071,0.90461 -0.7033,0.82566 0.15275,0.41244 1.07145,0.16837 1.09056,0.25602 0.10728,0.34191 -0.74884,0.83313 -0.78322,0.75028 0.11024,0.42578 1.04891,0.2759 1.05907,0.36503 0.07213,0.35101 -0.82928,0.7531 -0.8551,0.66719 0.0666,0.43475 1.01562,0.3806 1.0167,0.4703 0.03625,0.35651 -0.90122,0.66534 -0.91821,0.57725 z"
         inkscape:connector-curvature="0" />
    </g>
    <path
       sodipodi:type="star"
       style="fill:none;stroke:#000000;stroke-width:0.1;stroke-miterlimit:4;stroke-dasharray:none;stroke-opacity:1"
       id="path4455"
       sodipodi:sides="3"
       sodipodi:cx="23.779264"
       sodipodi:cy="-27.417128"
       sodipodi:r1="9.9720755"
       sodipodi:r2="4.9860382"
       sodipodi:arg1="0.51445131"
       sodipodi:arg2="1.5616489"
       inkscape:flatsided="false"
       inkscape:rounded="0.32"
       inkscape:randomized="0.002"
       d="m 32.472406,-22.505865 c -1.357802,2.404453 -5.877905,0.03484 -8.643783,0.06578 -2.765878,0.03094 -7.236502,2.466095 -8.641591,0.08763 -1.40509,-2.378461 2.901515,-5.135282 4.267477,-7.536506 1.365962,-2.401224 1.471521,-7.492053 4.234239,-7.510671 2.762718,-0.01862 2.975741,5.066629 4.375608,7.452036 1.399867,2.385407 5.765851,5.037277 4.40805,7.441729 z"
       inkscape:transform-center-x="-0.014345028"
       inkscape:transform-center-y="-1.100488"
       transform="matrix(0.56799154,0,0,0.57006601,25.4827,36.528229)" />
    <path
       transform="matrix(0.56799154,0,0,-0.57006601,25.4827,38.284377)"
       inkscape:transform-center-y="1.100488"
       inkscape:transform-center-x="-0.014345028"
       d="m 32.472406,-22.505865 c -1.357802,2.404453 -5.877905,0.03484 -8.643783,0.06578 -2.765878,0.03094 -7.236502,2.466095 -8.641591,0.08763 -1.40509,-2.378461 2.901515,-5.135282 4.267477,-7.536506 1.365962,-2.401224 1.471521,-7.492053 4.234239,-7.510671 2.762718,-0.01862 2.975741,5.066629 4.375608,7.452036 1.399867,2.385407 5.765851,5.037277 4.40805,7.441729 z"
       inkscape:randomized="0.002"
       inkscape:rounded="0.32"
       inkscape:flatsided="false"
       sodipodi:arg2="1.5616489"
       sodipodi:arg1="0.51445131"
       sodipodi:r2="4.9860382"
       sodipodi:r1="9.9720755"
       sodipodi:cy="-27.417128"
       sodipodi:cx="23.779264"
       sodipodi:sides="3"
       id="path4457"
       style="fill:none;stroke:#000000;stroke-width:0.1;stroke-miterlimit:4;stroke-dasharray:none;stroke-opacity:1"
       sodipodi:type="star" />
    <path
       transform="matrix(0,0.56799154,-0.57006601,0,39.890272,23.876805)"
       inkscape:transform-center-y="-1.100488"
       inkscape:transform-center-x="-0.014345028"
       d="m 32.472406,-22.505865 c -1.357802,2.404453 -5.877905,0.03484 -8.643783,0.06578 -2.765878,0.03094 -7.236502,2.466095 -8.641591,0.08763 -1.40509,-2.378461 2.901515,-5.135282 4.267477,-7.536506 1.365962,-2.401224 1.471521,-7.492053 4.234239,-7.510671 2.762718,-0.01862 2.975741,5.066629 4.375608,7.452036 1.399867,2.385407 5.765851,5.037277 4.40805,7.441729 z"
       inkscape:randomized="0.002"
       inkscape:rounded="0.32"
       inkscape:flatsided="false"
       sodipodi:arg2="1.5616489"
       sodipodi:arg1="0.51445131"
       sodipodi:r2="4.9860382"
       sodipodi:r1="9.9720755"
       sodipodi:cy="-27.417128"
       sodipodi:cx="23.779264"
       sodipodi:sides="3"
       id="path4473"
       style="fill:none;stroke:#000000;stroke-width:0.1;stroke-miterlimit:4;stroke-dasharray:none;stroke-opacity:1"
       sodipodi:type="star" />
    <path
       sodipodi:type="star"
       style="fill:none;stroke:#000000;stroke-width:0.1;stroke-miterlimit:4;stroke-dasharray:none;stroke-opacity:1"
       id="path4475"
       sodipodi:sides="3"
       sodipodi:cx="23.779264"
       sodipodi:cy="-27.417128"
       sodipodi:r1="9.9720755"
       sodipodi:r2="4.9860382"
       sodipodi:arg1="0.51445131"
       sodipodi:arg2="1.5616489"
       inkscape:flatsided="false"
       inkscape:rounded="0.32"
       inkscape:randomized="0.002"
       d="m 32.472406,-22.505865 c -1.357802,2.404453 -5.877905,0.03484 -8.643783,0.06578 -2.765878,0.03094 -7.236502,2.466095 -8.641591,0.08763 -1.40509,-2.378461 2.901515,-5.135282 4.267477,-7.536506 1.365962,-2.401224 1.471521,-7.492053 4.234239,-7.510671 2.762718,-0.01862 2.975741,5.066629 4.375608,7.452036 1.399867,2.385407 5.765851,5.037277 4.40805,7.441729 z"
       inkscape:transform-center-x="-0.014345028"
       inkscape:transform-center-y="1.100488"
       transform="matrix(0,0.56799154,0.57006601,0,38.134124,23.876805)" />
    <circle
       transform="rotate(-3.2870846)"
       r="0.96862191"
       cy="43.809956"
       cx="101.39233"
       id="circle4483"
       style="fill:none;stroke:#000000;stroke-width:0.06275614;stroke-miterlimit:4;stroke-dasharray:none;stroke-opacity:1" />
    <g
       transform="translate(103.73759,37.924146)"
       inkscape:label="Gear62"
       id="g4487">
      <path
         inkscape:connector-curvature="0"
         d="m 28.62142,-1.23132 0.9719,0.4814 0.9639,0.57074 v 0.35836 l -0.9639,0.57074 -0.9719,0.4814 -0.02228,0.43926 0.91821,0.57725 0.90122,0.66534 -0.03625,0.35651 -1.0167,0.4703 -1.01562,0.3806 -0.0666,0.43475 0.8551,0.66719 0.82928,0.7531 -0.07213,0.35101 -1.05907,0.36503 -1.04891,0.2759 -0.11024,0.42578 0.78322,0.75028 0.74884,0.83313 -0.10728,0.34191 -1.09056,0.25602 -1.07145,0.16837 -0.15275,0.41244 0.7033,0.82566 0.66071,0.90461 -0.14132,0.32932 -1.11086,0.14436 -1.08299,0.05912 -0.19369,0.39487 0.61616,0.89258 0.5658,0.96681 -0.17391,0.31332 -1.11977,0.03125 -1.0834,-0.05076 -0.23265,0.37325 0.52269,0.95034 0.46509,1.01909 -0.20472,0.29412 -1.11718,-0.0822 -1.07271,-0.1601 -0.26922,0.3478 0.42387,0.99834 0.3596,1.06091 -0.23342,0.27191 -1.10314,-0.19481 -1.05101,-0.2678 -0.30302,0.31878 0.32069,1.03609 0.25043,1.09186 -0.25973,0.24689 -1.07777,-0.30541 -1.01852,-0.37275 -0.33372,0.28648 0.21423,1.06323 0.13868,1.11159 -0.28338,0.21935 -1.04134,-0.41288 -0.97559,-0.47389 -0.36099,0.25126 0.10557,1.07944 0.02551,1.11991 -0.30412,0.18956 -0.99422,-0.51611 -0.92265,-0.57016 -0.38455,0.21345 -0.0042,1.08459 -0.08792,1.11675 -0.32173,0.15781 -0.93692,-0.61404 -0.86022,-0.66058 -0.40418,0.17345 -0.11389,1.0786 -0.20044,1.10212 -0.33605,0.12446 L 9.57468,28.01165 8.78569,27.26744 8.36604,27.3991 8.14362,28.46065 7.8327,29.53684 7.48579,29.62666 6.69166,28.83658 5.98202,28.01637 5.5512,28.10491 5.22252,29.1385 4.80432,30.17772 4.4501,30.23198 3.73998,29.36562 3.11696,28.47782 2.67939,28.52231 2.24783,29.51735 1.72664,30.50893 1.36875,30.52708 0.74992,29.59332 0.21991,28.64705 h -0.43982 l -0.53001,0.94627 -0.61883,0.93376 -0.35789,-0.01815 -0.52119,-0.99158 -0.43156,-0.99504 -0.43757,-0.04449 -0.62302,0.8878 -0.71012,0.86636 -0.35422,-0.05426 -0.4182,-1.03922 -0.32868,-1.03359 -0.43082,-0.08854 -0.70964,0.82021 -0.79413,0.79008 -0.34691,-0.08982 -0.31092,-1.07619 -0.22242,-1.06155 -0.41965,-0.13166 -0.78899,0.74421 -0.86998,0.70568 -0.33605,-0.12446 -0.20044,-1.10212 -0.11389,-1.0786 -0.40418,-0.17345 -0.86022,0.66058 -0.93692,0.61404 -0.32173,-0.15781 -0.08792,-1.11675 -0.0042,-1.08459 -0.38455,-0.21345 -0.92265,0.57016 -0.99422,0.51611 -0.30412,-0.18956 0.02551,-1.11991 0.10557,-1.07944 -0.36099,-0.25126 -0.97559,0.47389 -1.04134,0.41288 -0.28338,-0.21935 0.13868,-1.11159 0.21423,-1.06323 -0.33372,-0.28648 -1.01852,0.37275 -1.07777,0.30541 -0.25973,-0.24689 0.25043,-1.09186 0.32069,-1.03609 -0.30302,-0.31878 -1.05101,0.2678 -1.10314,0.19481 -0.23342,-0.27191 0.3596,-1.06091 0.42387,-0.99834 -0.26922,-0.3478 -1.07271,0.1601 -1.11718,0.0822 -0.20472,-0.29412 0.46509,-1.01909 0.52269,-0.95034 -0.23265,-0.37325 -1.0834,0.05076 -1.11977,-0.03125 -0.17391,-0.31332 0.5658,-0.96681 0.61616,-0.89258 -0.19369,-0.39487 -1.08299,-0.05912 -1.11086,-0.14436 -0.14132,-0.32932 0.66071,-0.90461 0.7033,-0.82566 -0.15275,-0.41244 -1.07145,-0.16837 -1.09056,-0.25602 -0.10728,-0.34191 0.74884,-0.83313 0.78322,-0.75028 -0.11024,-0.42578 -1.04891,-0.2759 -1.05907,-0.36503 -0.07213,-0.35101 0.82928,-0.7531 0.8551,-0.66719 -0.0666,-0.43475 -1.01562,-0.3806 -1.0167,-0.4703 -0.03625,-0.35651 0.90122,-0.66534 0.91821,-0.57725 -0.02228,-0.43926 -0.9719,-0.4814 -0.9639,-0.57074 v -0.35836 l 0.9639,-0.57074 0.9719,-0.4814 0.02228,-0.43926 -0.91821,-0.57725 -0.90122,-0.66534 0.03625,-0.35651 1.0167,-0.4703 1.01562,-0.3806 0.0666,-0.43475 -0.8551,-0.66719 -0.82928,-0.7531 0.07213,-0.35101 1.05907,-0.36503 1.04891,-0.2759 0.11024,-0.42578 -0.78322,-0.75028 -0.74884,-0.83313 0.10728,-0.34191 1.09056,-0.25602 1.07145,-0.16837 0.15275,-0.41244 -0.7033,-0.82566 -0.66071,-0.90461 0.14132,-0.32932 1.11086,-0.14436 1.08299,-0.05912 0.19369,-0.39487 -0.61616,-0.89258 -0.5658,-0.96681 0.17391,-0.31332 1.11977,-0.03125 1.0834,0.05076 0.23265,-0.37325 -0.52269,-0.95034 -0.46509,-1.01909 0.20472,-0.29412 1.11718,0.0822 1.07271,0.1601 0.26922,-0.3478 -0.42387,-0.99834 -0.3596,-1.06091 0.23342,-0.27191 1.10314,0.19481 1.05101,0.2678 0.30302,-0.31878 -0.32069,-1.03609 -0.25043,-1.09186 0.25973,-0.24689 1.07777,0.30541 1.01852,0.37275 0.33372,-0.28648 -0.21423,-1.06323 -0.13868,-1.11159 0.28338,-0.21935 1.04134,0.41288 0.97559,0.47389 0.36099,-0.25126 -0.10557,-1.07944 -0.02551,-1.11991 0.30412,-0.18956 0.99422,0.51611 0.92265,0.57016 0.38455,-0.21345 0.0042,-1.08459 0.08792,-1.11675 0.32173,-0.15781 0.93692,0.61404 0.86022,0.66058 0.40418,-0.17345 0.11389,-1.0786 0.20044,-1.10212 0.33605,-0.12446 0.86998,0.70568 0.78899,0.74421 0.41965,-0.13166 0.22242,-1.06155 0.31092,-1.07619 0.34691,-0.08982 0.79413,0.79008 0.70964,0.82021 0.43082,-0.08854 0.32868,-1.03359 0.4182,-1.03922 0.35422,-0.05426 0.71012,0.86636 0.62302,0.8878 0.43757,-0.04449 0.43156,-0.99504 0.52119,-0.99158 0.35789,-0.01815 0.61883,0.93376 0.53001,0.94627 h 0.43982 l 0.53001,-0.94627 0.61883,-0.93376 0.35789,0.01815 0.52119,0.99158 0.43156,0.99504 0.43757,0.04449 0.62302,-0.8878 0.71012,-0.86636 0.35422,0.05426 0.4182,1.03922 0.32868,1.03359 0.43082,0.08854 0.70964,-0.82021 0.79413,-0.79008 0.34691,0.08982 0.31092,1.07619 0.22242,1.06155 0.41965,0.13166 0.78899,-0.74421 0.86998,-0.70568 0.33605,0.12446 0.20044,1.10212 0.11389,1.0786 0.40418,0.17345 0.86022,-0.66058 0.93692,-0.61404 0.32173,0.15781 0.08792,1.11675 0.0042,1.08459 0.38455,0.21345 0.92265,-0.57016 0.99422,-0.51611 0.30412,0.18956 -0.02551,1.11991 -0.10557,1.07944 0.36099,0.25126 0.97559,-0.47389 1.04134,-0.41288 0.28338,0.21935 -0.13868,1.11159 -0.21423,1.06323 0.33372,0.28648 1.01852,-0.37275 1.07777,-0.30541 0.25973,0.24689 -0.25043,1.09186 -0.32069,1.03609 0.30302,0.31878 1.05101,-0.2678 1.10314,-0.19481 0.23342,0.27191 -0.3596,1.06091 -0.42387,0.99834 0.26922,0.3478 1.07271,-0.1601 1.11718,-0.0822 0.20472,0.29412 -0.46509,1.01909 -0.52269,0.95034 0.23265,0.37325 1.0834,-0.05076 1.11977,0.03125 0.17391,0.31332 -0.5658,0.96681 -0.61616,0.89258 0.19369,0.39487 1.08299,0.05912 1.11086,0.14436 0.14132,0.32932 -0.66071,0.90461 -0.7033,0.82566 0.15275,0.41244 1.07145,0.16837 1.09056,0.25602 0.10728,0.34191 -0.74884,0.83313 -0.78322,0.75028 0.11024,0.42578 1.04891,0.2759 1.05907,0.36503 0.07213,0.35101 -0.82928,0.7531 -0.8551,0.66719 0.0666,0.43475 1.01562,0.3806 1.0167,0.4703 0.03625,0.35651 -0.90122,0.66534 -0.91821,0.57725 z"
         style="fill:none;stroke:#000000;stroke-width:0.26458332"
         id="path4485" />
    </g>
    <path
       transform="matrix(0.56799154,0,0,0.57006601,89.772162,36.886589)"
       inkscape:transform-center-y="-1.100488"
       inkscape:transform-center-x="-0.014345028"
       d="m 32.472406,-22.505865 c -1.357802,2.404453 -5.877905,0.03484 -8.643783,0.06578 -2.765878,0.03094 -7.236502,2.466095 -8.641591,0.08763 -1.40509,-2.378461 2.901515,-5.135282 4.267477,-7.536506 1.365962,-2.401224 1.471521,-7.492053 4.234239,-7.510671 2.762718,-0.01862 2.975741,5.066629 4.375608,7.452036 1.399867,2.385407 5.765851,5.037277 4.40805,7.441729 z"
       inkscape:randomized="0.002"
       inkscape:rounded="0.32"
       inkscape:flatsided="false"
       sodipodi:arg2="1.5616489"
       sodipodi:arg1="0.51445131"
       sodipodi:r2="4.9860382"
       sodipodi:r1="9.9720755"
       sodipodi:cy="-27.417128"
       sodipodi:cx="23.779264"
       sodipodi:sides="3"
       id="path4489"
       style="fill:none;stroke:#000000;stroke-width:0.1;stroke-miterlimit:4;stroke-dasharray:none;stroke-opacity:1"
       sodipodi:type="star" />
    <path
       sodipodi:type="star"
       style="fill:none;stroke:#000000;stroke-width:0.1;stroke-miterlimit:4;stroke-dasharray:none;stroke-opacity:1"
       id="path4491"
       sodipodi:sides="3"
       sodipodi:cx="23.779264"
       sodipodi:cy="-27.417128"
       sodipodi:r1="9.9720755"
       sodipodi:r2="4.9860382"
       sodipodi:arg1="0.51445131"
       sodipodi:arg2="1.5616489"
       inkscape:flatsided="false"
       inkscape:rounded="0.32"
       inkscape:randomized="0.002"
       d="m 32.472406,-22.505865 c -1.357802,2.404453 -5.877905,0.03484 -8.643783,0.06578 -2.765878,0.03094 -7.236502,2.466095 -8.641591,0.08763 -1.40509,-2.378461 2.901515,-5.135282 4.267477,-7.536506 1.365962,-2.401224 1.471521,-7.492053 4.234239,-7.510671 2.762718,-0.01862 2.975741,5.066629 4.375608,7.452036 1.399867,2.385407 5.765851,5.037277 4.40805,7.441729 z"
       inkscape:transform-center-x="-0.014345028"
       inkscape:transform-center-y="1.100488"
       transform="matrix(0.56799154,0,0,-0.57006601,89.772162,38.642737)" />
    <path
       sodipodi:type="star"
       style="fill:none;stroke:#000000;stroke-width:0.1;stroke-miterlimit:4;stroke-dasharray:none;stroke-opacity:1"
       id="path4493"
       sodipodi:sides="3"
       sodipodi:cx="23.779264"
       sodipodi:cy="-27.417128"
       sodipodi:r1="9.9720755"
       sodipodi:r2="4.9860382"
       sodipodi:arg1="0.51445131"
       sodipodi:arg2="1.5616489"
       inkscape:flatsided="false"
       inkscape:rounded="0.32"
       inkscape:randomized="0.002"
       d="m 32.472406,-22.505865 c -1.357802,2.404453 -5.877905,0.03484 -8.643783,0.06578 -2.765878,0.03094 -7.236502,2.466095 -8.641591,0.08763 -1.40509,-2.378461 2.901515,-5.135282 4.267477,-7.536506 1.365962,-2.401224 1.471521,-7.492053 4.234239,-7.510671 2.762718,-0.01862 2.975741,5.066629 4.375608,7.452036 1.399867,2.385407 5.765851,5.037277 4.40805,7.441729 z"
       inkscape:transform-center-x="-0.014345028"
       inkscape:transform-center-y="-1.100488"
       transform="matrix(0,0.56799154,-0.57006601,0,104.17975,24.235165)" />
    <path
       transform="matrix(0,0.56799154,0.57006601,0,102.4236,24.235165)"
       inkscape:transform-center-y="1.100488"
       inkscape:transform-center-x="-0.014345028"
       d="m 32.472406,-22.505865 c -1.357802,2.404453 -5.877905,0.03484 -8.643783,0.06578 -2.765878,0.03094 -7.236502,2.466095 -8.641591,0.08763 -1.40509,-2.378461 2.901515,-5.135282 4.267477,-7.536506 1.365962,-2.401224 1.471521,-7.492053 4.234239,-7.510671 2.762718,-0.01862 2.975741,5.066629 4.375608,7.452036 1.399867,2.385407 5.765851,5.037277 4.40805,7.441729 z"
       inkscape:randomized="0.002"
       inkscape:rounded="0.32"
       inkscape:flatsided="false"
       sodipodi:arg2="1.5616489"
       sodipodi:arg1="0.51445131"
       sodipodi:r2="4.9860382"
       sodipodi:r1="9.9720755"
       sodipodi:cy="-27.417128"
       sodipodi:cx="23.779264"
       sodipodi:sides="3"
       id="path4495"
       style="fill:none;stroke:#000000;stroke-width:0.1;stroke-miterlimit:4;stroke-dasharray:none;stroke-opacity:1"
       sodipodi:type="star" />
  </g>
</svg>
