<?xml version="1.0" encoding="UTF-8" standalone="no"?>
<!-- Created with Inkscape (http://www.inkscape.org/) -->

<svg
   xmlns:dc="http://purl.org/dc/elements/1.1/"
   xmlns:cc="http://creativecommons.org/ns#"
   xmlns:rdf="http://www.w3.org/1999/02/22-rdf-syntax-ns#"
   xmlns:svg="http://www.w3.org/2000/svg"
   xmlns="http://www.w3.org/2000/svg"
   xmlns:sodipodi="http://sodipodi.sourceforge.net/DTD/sodipodi-0.dtd"
   xmlns:inkscape="http://www.inkscape.org/namespaces/inkscape"
   width="210mm"
   height="297mm"
   viewBox="0 0 210 297"
   version="1.1"
   id="svg7004"
   inkscape:version="0.92.3 (2405546, 2018-03-11)"
   sodipodi:docname="支架_外_3mm.svg">
  <sodipodi:namedview
     id="base"
     pagecolor="#ffffff"
     bordercolor="#666666"
     borderopacity="1.0"
     inkscape:pageopacity="0.0"
     inkscape:pageshadow="2"
     inkscape:zoom="0.96994815"
     inkscape:cx="489.17412"
     inkscape:cy="865.3456"
     inkscape:document-units="mm"
     inkscape:current-layer="layer1"
     showgrid="false"
     inkscape:window-width="1366"
     inkscape:window-height="705"
     inkscape:window-x="-8"
     inkscape:window-y="-8"
     inkscape:window-maximized="1" />
  <defs
     id="defs6998" />
  <metadata
     id="metadata7001">
    <rdf:RDF>
      <cc:Work
         rdf:about="">
        <dc:format>image/svg+xml</dc:format>
        <dc:type
           rdf:resource="http://purl.org/dc/dcmitype/StillImage" />
        <dc:title />
      </cc:Work>
    </rdf:RDF>
  </metadata>
  <g
     id="layer1"
     inkscape:groupmode="layer"
     inkscape:label="圖層 1">
    <ellipse
       r="26.564932"
       cy="65.097"
       cx="56.875"
       id="path2261"
       style="fill:none;stroke:#000000;stroke-width:0.1;stroke-miterlimit:4;stroke-dasharray:none;stroke-opacity:1" />
    <ellipse
       style="fill:none;stroke:#000000;stroke-width:0.37013614;stroke-miterlimit:4;stroke-dasharray:none;stroke-opacity:1"
       id="ellipse2263"
       cx="56.875"
       cy="65.097"
       r="26.564932" />
    <ellipse
       style="fill:none;stroke:#000000;stroke-width:0.1;stroke-miterlimit:4;stroke-dasharray:none;stroke-opacity:1"
       id="ellipse2265"
       cx="56.875"
       cy="65.097"
       r="26.564932" />
    <circle
       r="0"
       cy="65.097"
       cx="56.875"
       id="path2261-9"
       style="fill:none;stroke:#000000;stroke-width:0.1;stroke-miterlimit:4;stroke-dasharray:none;stroke-opacity:1" />
    <path
       inkscape:connector-curvature="0"
       style="fill:none;fill-opacity:1;stroke:#000000;stroke-width:0.11455153;stroke-miterlimit:4;stroke-dasharray:none;stroke-opacity:1"
       d="M 191.8916,7.4976339 A 59.957011,59.957011 0 0 0 131.93454,67.454697 59.957011,59.957011 0 0 0 191.8916,127.41175 59.957011,59.957011 0 0 0 251.84867,67.454697 59.957011,59.957011 0 0 0 191.8916,7.4976339 Z"
       id="path1196" />
    <path
       id="path1198"
       d="m 191.89139,12.494106 a 54.960593,54.960593 0 0 0 -27.15958,7.291545 5.9573522,6.1955042 0 0 1 2.32699,4.902543 5.9573522,6.1955042 0 0 1 -0.262,1.813325 l 0.0904,0.134876 -0.17673,0.117306 a 5.9573522,6.1955042 0 0 1 -5.60896,4.129979 5.9573522,6.1955042 0 0 1 -4.7563,-2.474783 5.9477586,5.9477586 0 0 1 -1.07125,-1.770951 54.960593,54.960593 0 0 0 -18.01957,35.121371 5.9477586,5.9477586 0 0 1 1.41697,-0.177253 5.9477586,5.9477586 0 0 1 5.94795,5.947958 5.9477586,5.9477586 0 0 1 -5.94795,5.947442 5.9477586,5.9477586 0 0 1 -1.37356,-0.167431 54.960593,54.960593 0 0 0 6.60941,20.711395 l 25.27908,-20.314005 a 9.641524,15.595326 44.629317 0 1 5.89163,-10.662914 9.641524,15.595326 44.629317 0 1 8.42997,-5.4684 16.810532,10.388456 43.70683 0 1 0.007,-0.01809 v 0.01085 h 15.09417 c 0.2251,-0.02302 0.45386,-0.03514 0.68523,-0.03514 h 3.23236 c 3.65625,0 6.5996,2.943352 6.5996,6.599597 v 18.375622 h -0.12816 v 4.258657 2.946071 H 229.332 a 10.716844,15.718038 77.986476 0 1 2.6324,4.33927 10.716844,15.718038 77.986476 0 1 -1.94459,7.202154 l 2.65617,2.94969 a 54.960593,54.960593 0 0 0 13.89941,-31.399642 5.9477586,5.9477586 0 0 1 -1.5291,0.203089 5.9477586,5.9477586 0 0 1 -5.94744,-5.947958 5.9477586,5.9477586 0 0 1 5.94744,-5.947439 5.9477586,5.9477586 0 0 1 1.39991,0.174149 54.960593,54.960593 0 0 0 -19.60397,-36.07325 6.4281626,5.5946307 0 0 1 -1.68465,2.091344 5.9477586,5.9477586 0 0 1 -4.00596,1.567347 5.9477586,5.9477586 0 0 1 -0.47646,-0.02377 l -0.21704,0.324527 -0.83716,-0.547253 a 6.4281626,5.5946307 0 0 1 -5.17177,-5.48597 6.4281626,5.5946307 0 0 1 2.51147,-4.431254 5.9477586,5.9477586 0 0 1 0.0253,-0.02739 54.960593,54.960593 0 0 0 -25.09459,-6.187219 z"
       style="fill:none;fill-opacity:1;stroke:#000000;stroke-width:0.11455153;stroke-miterlimit:4;stroke-dasharray:none;stroke-opacity:1"
       inkscape:connector-curvature="0" />
    <path
       id="path1200"
       d="m 189.81348,103.05757 -11.26288,12.22458 a 8.6296195,6.6325307 0 0 1 0.005,0.078 8.6296195,6.6325307 0 0 1 -2.50475,4.66483 54.960593,54.960593 0 0 0 15.84037,2.39003 54.960593,54.960593 0 0 0 25.73952,-6.48281 5.9477586,5.9477586 0 0 1 -2.02779,-4.46639 5.9477586,5.9477586 0 0 1 0.73639,-2.86546 l -0.32814,-0.36432 c -0.0251,-0.0109 -0.0499,-0.0241 -0.0749,-0.0351 a 12.919335,15.994922 66.02428 0 1 -12.95114,-5.14335 z"
       style="fill:none;fill-opacity:1;stroke:#000000;stroke-width:0.11455153;stroke-miterlimit:4;stroke-dasharray:none;stroke-opacity:1"
       inkscape:connector-curvature="0" />
    <rect
       style="fill:none;stroke:#000000;stroke-width:0.14105062;stroke-miterlimit:4;stroke-dasharray:none;stroke-opacity:1"
       id="rect1202"
       width="6.5811234"
       height="17.123055"
       x="94.184601"
       y="-226.28169"
       transform="rotate(90)"
       rx="2.761517" />
    <circle
       r="0.95599604"
       transform="scale(-1,1)"
       cy="66.976669"
       cx="-192.31233"
       id="circle1204"
       style="fill:none;fill-rule:evenodd;stroke:#000000;stroke-width:0.08800795;stroke-miterlimit:4;stroke-dasharray:none;stroke-opacity:1" />
    <circle
       style="fill:none;stroke:#000000;stroke-width:0.06275614;stroke-miterlimit:4;stroke-dasharray:none;stroke-opacity:1"
       id="circle1206"
       cx="159.95764"
       cy="35.602299"
       r="0.96862191"
       transform="rotate(-3.2870846)" />
    <circle
       r="0.96862191"
       cy="24.845745"
       cx="219.9117"
       id="circle1208"
       style="fill:none;stroke:#000000;stroke-width:0.06275614;stroke-miterlimit:4;stroke-dasharray:none;stroke-opacity:1" />
    <circle
       style="fill:none;stroke:#000000;stroke-width:0.06275614;stroke-miterlimit:4;stroke-dasharray:none;stroke-opacity:1"
       id="circle1210"
       cx="242.8817"
       cy="67.45475"
       r="0.96862191" />
    <circle
       r="0.96862191"
       cy="67.45475"
       cx="140.9527"
       id="circle1212"
       style="fill:none;stroke:#000000;stroke-width:0.06275614;stroke-miterlimit:4;stroke-dasharray:none;stroke-opacity:1" />
    <circle
       style="fill:none;stroke:#000000;stroke-width:0.06275614;stroke-miterlimit:4;stroke-dasharray:none;stroke-opacity:1"
       id="circle1214"
       cx="219.9117"
       cy="110.04175"
       r="0.96862191" />
    <circle
       r="0.96862191"
       cy="125.06731"
       cx="167.23979"
       id="circle1216"
       style="fill:none;stroke:#000000;stroke-width:0.06275614;stroke-miterlimit:4;stroke-dasharray:none;stroke-opacity:1"
       transform="rotate(-3.2870846)" />
    <g
       id="g1224"
       transform="rotate(-2.1675824,-1309.3745,-3556.7605)">
      <g
         transform="translate(64.573807,83.476441)"
         inkscape:label="Gear12"
         id="g1220">
        <path
           inkscape:connector-curvature="0"
           d="m 4.69348,-0.87664 0.18413,-0.03439 0.80295,0.16317 1.00306,0.63911 v 0.2175 L 5.68056,0.74786 4.87761,0.91103 4.69348,0.87664 4.503,1.58755 4.67965,1.64983 5.29344,2.19261 5.84256,3.24763 5.73381,3.43599 4.54558,3.48795 3.76862,3.22778 3.62635,3.10594 3.10594,3.62635 3.22778,3.76862 3.48795,4.54558 3.43599,5.73381 3.24763,5.84256 2.19261,5.29344 1.64983,4.67965 1.58755,4.503 0.87664,4.69348 0.91103,4.87761 0.74786,5.68056 0.10875,6.68362 h -0.2175 L -0.74786,5.68056 -0.91103,4.87761 -0.87664,4.69348 -1.58755,4.503 -1.64983,4.67965 -2.19261,5.29344 -3.24763,5.84256 -3.43599,5.73381 -3.48795,4.54558 -3.22778,3.76862 -3.10594,3.62635 -3.62635,3.10594 -3.76862,3.22778 -4.54558,3.48795 -5.73381,3.43599 -5.84256,3.24763 -5.29344,2.19261 -4.67965,1.64983 -4.503,1.58755 -4.69348,0.87664 -4.87761,0.91103 -5.68056,0.74786 -6.68362,0.10875 v -0.2175 l 1.00306,-0.63911 0.80295,-0.16317 0.18413,0.03439 0.19048,-0.71091 -0.17665,-0.06228 -0.61379,-0.54278 -0.54912,-1.05502 0.10875,-0.18836 1.18823,-0.05196 0.77696,0.26017 0.14227,0.12184 0.52041,-0.52041 -0.12184,-0.14227 -0.26017,-0.77696 0.05196,-1.18823 0.18836,-0.10875 1.05502,0.54912 0.54278,0.61379 0.06228,0.17665 0.71091,-0.19048 -0.03439,-0.18413 0.16317,-0.80295 0.63911,-1.00306 h 0.2175 l 0.63911,1.00306 0.16317,0.80295 -0.03439,0.18413 0.71091,0.19048 0.06228,-0.17665 0.54278,-0.61379 1.05502,-0.54912 0.18836,0.10875 0.05196,1.18823 -0.26017,0.77696 -0.12184,0.14227 0.52041,0.52041 0.14227,-0.12184 0.77696,-0.26017 1.18823,0.05196 0.10875,0.18836 -0.54912,1.05502 -0.61379,0.54278 -0.17665,0.06228 z"
           style="fill:none;stroke:#000000;stroke-width:0.26458332"
           id="path1218" />
      </g>
      <circle
         r="0.96862191"
         cy="83.47644"
         cx="64.573807"
         id="circle1222"
         style="fill:none;stroke:#000000;stroke-width:0.06275614;stroke-miterlimit:4;stroke-dasharray:none;stroke-opacity:1" />
    </g>
    <g
       transform="rotate(-2.1675824,-914.03722,-3556.0822)"
       id="g1232">
      <g
         id="g1228"
         inkscape:label="Gear12"
         transform="translate(64.573807,83.476441)">
        <path
           id="path1226"
           style="fill:none;stroke:#000000;stroke-width:0.26458332"
           d="m 4.69348,-0.87664 0.18413,-0.03439 0.80295,0.16317 1.00306,0.63911 v 0.2175 L 5.68056,0.74786 4.87761,0.91103 4.69348,0.87664 4.503,1.58755 4.67965,1.64983 5.29344,2.19261 5.84256,3.24763 5.73381,3.43599 4.54558,3.48795 3.76862,3.22778 3.62635,3.10594 3.10594,3.62635 3.22778,3.76862 3.48795,4.54558 3.43599,5.73381 3.24763,5.84256 2.19261,5.29344 1.64983,4.67965 1.58755,4.503 0.87664,4.69348 0.91103,4.87761 0.74786,5.68056 0.10875,6.68362 h -0.2175 L -0.74786,5.68056 -0.91103,4.87761 -0.87664,4.69348 -1.58755,4.503 -1.64983,4.67965 -2.19261,5.29344 -3.24763,5.84256 -3.43599,5.73381 -3.48795,4.54558 -3.22778,3.76862 -3.10594,3.62635 -3.62635,3.10594 -3.76862,3.22778 -4.54558,3.48795 -5.73381,3.43599 -5.84256,3.24763 -5.29344,2.19261 -4.67965,1.64983 -4.503,1.58755 -4.69348,0.87664 -4.87761,0.91103 -5.68056,0.74786 -6.68362,0.10875 v -0.2175 l 1.00306,-0.63911 0.80295,-0.16317 0.18413,0.03439 0.19048,-0.71091 -0.17665,-0.06228 -0.61379,-0.54278 -0.54912,-1.05502 0.10875,-0.18836 1.18823,-0.05196 0.77696,0.26017 0.14227,0.12184 0.52041,-0.52041 -0.12184,-0.14227 -0.26017,-0.77696 0.05196,-1.18823 0.18836,-0.10875 1.05502,0.54912 0.54278,0.61379 0.06228,0.17665 0.71091,-0.19048 -0.03439,-0.18413 0.16317,-0.80295 0.63911,-1.00306 h 0.2175 l 0.63911,1.00306 0.16317,0.80295 -0.03439,0.18413 0.71091,0.19048 0.06228,-0.17665 0.54278,-0.61379 1.05502,-0.54912 0.18836,0.10875 0.05196,1.18823 -0.26017,0.77696 -0.12184,0.14227 0.52041,0.52041 0.14227,-0.12184 0.77696,-0.26017 1.18823,0.05196 0.10875,0.18836 -0.54912,1.05502 -0.61379,0.54278 -0.17665,0.06228 z"
           inkscape:connector-curvature="0" />
      </g>
      <circle
         style="fill:none;stroke:#000000;stroke-width:0.06275614;stroke-miterlimit:4;stroke-dasharray:none;stroke-opacity:1"
         id="circle1230"
         cx="64.573807"
         cy="83.47644"
         r="0.96862191" />
    </g>
    <g
       transform="rotate(-2.1675824,-1310.0527,-3161.423)"
       id="g1240">
      <g
         id="g1236"
         inkscape:label="Gear12"
         transform="translate(64.573807,83.476441)">
        <path
           id="path1234"
           style="fill:none;stroke:#000000;stroke-width:0.26458332"
           d="m 4.69348,-0.87664 0.18413,-0.03439 0.80295,0.16317 1.00306,0.63911 v 0.2175 L 5.68056,0.74786 4.87761,0.91103 4.69348,0.87664 4.503,1.58755 4.67965,1.64983 5.29344,2.19261 5.84256,3.24763 5.73381,3.43599 4.54558,3.48795 3.76862,3.22778 3.62635,3.10594 3.10594,3.62635 3.22778,3.76862 3.48795,4.54558 3.43599,5.73381 3.24763,5.84256 2.19261,5.29344 1.64983,4.67965 1.58755,4.503 0.87664,4.69348 0.91103,4.87761 0.74786,5.68056 0.10875,6.68362 h -0.2175 L -0.74786,5.68056 -0.91103,4.87761 -0.87664,4.69348 -1.58755,4.503 -1.64983,4.67965 -2.19261,5.29344 -3.24763,5.84256 -3.43599,5.73381 -3.48795,4.54558 -3.22778,3.76862 -3.10594,3.62635 -3.62635,3.10594 -3.76862,3.22778 -4.54558,3.48795 -5.73381,3.43599 -5.84256,3.24763 -5.29344,2.19261 -4.67965,1.64983 -4.503,1.58755 -4.69348,0.87664 -4.87761,0.91103 -5.68056,0.74786 -6.68362,0.10875 v -0.2175 l 1.00306,-0.63911 0.80295,-0.16317 0.18413,0.03439 0.19048,-0.71091 -0.17665,-0.06228 -0.61379,-0.54278 -0.54912,-1.05502 0.10875,-0.18836 1.18823,-0.05196 0.77696,0.26017 0.14227,0.12184 0.52041,-0.52041 -0.12184,-0.14227 -0.26017,-0.77696 0.05196,-1.18823 0.18836,-0.10875 1.05502,0.54912 0.54278,0.61379 0.06228,0.17665 0.71091,-0.19048 -0.03439,-0.18413 0.16317,-0.80295 0.63911,-1.00306 h 0.2175 l 0.63911,1.00306 0.16317,0.80295 -0.03439,0.18413 0.71091,0.19048 0.06228,-0.17665 0.54278,-0.61379 1.05502,-0.54912 0.18836,0.10875 0.05196,1.18823 -0.26017,0.77696 -0.12184,0.14227 0.52041,0.52041 0.14227,-0.12184 0.77696,-0.26017 1.18823,0.05196 0.10875,0.18836 -0.54912,1.05502 -0.61379,0.54278 -0.17665,0.06228 z"
           inkscape:connector-curvature="0" />
      </g>
      <circle
         style="fill:none;stroke:#000000;stroke-width:0.06275614;stroke-miterlimit:4;stroke-dasharray:none;stroke-opacity:1"
         id="circle1238"
         cx="64.573807"
         cy="83.47644"
         r="0.96862191" />
    </g>
    <g
       id="g1248"
       transform="rotate(-2.1675824,-914.71555,-3160.7448)">
      <g
         transform="translate(64.573807,83.476441)"
         inkscape:label="Gear12"
         id="g1244">
        <path
           inkscape:connector-curvature="0"
           d="m 4.69348,-0.87664 0.18413,-0.03439 0.80295,0.16317 1.00306,0.63911 v 0.2175 L 5.68056,0.74786 4.87761,0.91103 4.69348,0.87664 4.503,1.58755 4.67965,1.64983 5.29344,2.19261 5.84256,3.24763 5.73381,3.43599 4.54558,3.48795 3.76862,3.22778 3.62635,3.10594 3.10594,3.62635 3.22778,3.76862 3.48795,4.54558 3.43599,5.73381 3.24763,5.84256 2.19261,5.29344 1.64983,4.67965 1.58755,4.503 0.87664,4.69348 0.91103,4.87761 0.74786,5.68056 0.10875,6.68362 h -0.2175 L -0.74786,5.68056 -0.91103,4.87761 -0.87664,4.69348 -1.58755,4.503 -1.64983,4.67965 -2.19261,5.29344 -3.24763,5.84256 -3.43599,5.73381 -3.48795,4.54558 -3.22778,3.76862 -3.10594,3.62635 -3.62635,3.10594 -3.76862,3.22778 -4.54558,3.48795 -5.73381,3.43599 -5.84256,3.24763 -5.29344,2.19261 -4.67965,1.64983 -4.503,1.58755 -4.69348,0.87664 -4.87761,0.91103 -5.68056,0.74786 -6.68362,0.10875 v -0.2175 l 1.00306,-0.63911 0.80295,-0.16317 0.18413,0.03439 0.19048,-0.71091 -0.17665,-0.06228 -0.61379,-0.54278 -0.54912,-1.05502 0.10875,-0.18836 1.18823,-0.05196 0.77696,0.26017 0.14227,0.12184 0.52041,-0.52041 -0.12184,-0.14227 -0.26017,-0.77696 0.05196,-1.18823 0.18836,-0.10875 1.05502,0.54912 0.54278,0.61379 0.06228,0.17665 0.71091,-0.19048 -0.03439,-0.18413 0.16317,-0.80295 0.63911,-1.00306 h 0.2175 l 0.63911,1.00306 0.16317,0.80295 -0.03439,0.18413 0.71091,0.19048 0.06228,-0.17665 0.54278,-0.61379 1.05502,-0.54912 0.18836,0.10875 0.05196,1.18823 -0.26017,0.77696 -0.12184,0.14227 0.52041,0.52041 0.14227,-0.12184 0.77696,-0.26017 1.18823,0.05196 0.10875,0.18836 -0.54912,1.05502 -0.61379,0.54278 -0.17665,0.06228 z"
           style="fill:none;stroke:#000000;stroke-width:0.26458332"
           id="path1242" />
      </g>
      <circle
         r="0.96862191"
         cy="83.47644"
         cx="64.573807"
         id="circle1246"
         style="fill:none;stroke:#000000;stroke-width:0.06275614;stroke-miterlimit:4;stroke-dasharray:none;stroke-opacity:1" />
    </g>
    <ellipse
       ry="4.4608192"
       rx="4.4608188"
       cy="-30.182377"
       cx="163.59811"
       id="ellipse1250"
       style="fill:none;stroke:#000000;stroke-width:0.07836204;stroke-miterlimit:4;stroke-dasharray:none;stroke-opacity:1"
       transform="rotate(23.959341)" />
    <ellipse
       cy="-30.182377"
       cx="163.59811"
       id="ellipse1252"
       style="fill:none;stroke:#000000;stroke-width:0.05334273;stroke-miterlimit:4;stroke-dasharray:none;stroke-opacity:1"
       rx="0.82332861"
       ry="0.82332867"
       transform="rotate(23.959341)" />
    <ellipse
       style="fill:none;stroke:#000000;stroke-width:0.07836204;stroke-miterlimit:4;stroke-dasharray:none;stroke-opacity:1"
       id="ellipse1254"
       cx="173.78923"
       cy="-30.371105"
       rx="4.4608188"
       ry="4.4608192"
       transform="rotate(23.959341)" />
    <ellipse
       ry="0.82332867"
       rx="0.82332861"
       style="fill:none;stroke:#000000;stroke-width:0.05334273;stroke-miterlimit:4;stroke-dasharray:none;stroke-opacity:1"
       id="ellipse1256"
       cx="173.78923"
       cy="-30.371105"
       transform="rotate(23.959341)" />
    <ellipse
       transform="rotate(23.959341)"
       style="fill:none;stroke:#000000;stroke-width:0.07836204;stroke-miterlimit:4;stroke-dasharray:none;stroke-opacity:1"
       id="ellipse1258"
       cx="164.57433"
       cy="-20.212975"
       rx="4.4608188"
       ry="4.4608192" />
    <ellipse
       transform="rotate(23.959341)"
       ry="0.82332867"
       rx="0.82332861"
       style="fill:none;stroke:#000000;stroke-width:0.05334273;stroke-miterlimit:4;stroke-dasharray:none;stroke-opacity:1"
       id="ellipse1260"
       cx="164.57433"
       cy="-20.212975" />
    <ellipse
       transform="rotate(23.959341)"
       ry="4.4608192"
       rx="4.4608188"
       cy="-20.401703"
       cx="174.76544"
       id="ellipse1262"
       style="fill:none;stroke:#000000;stroke-width:0.07836204;stroke-miterlimit:4;stroke-dasharray:none;stroke-opacity:1" />
    <ellipse
       transform="rotate(23.959341)"
       cy="-20.401703"
       cx="174.76544"
       id="ellipse1264"
       style="fill:none;stroke:#000000;stroke-width:0.05334273;stroke-miterlimit:4;stroke-dasharray:none;stroke-opacity:1"
       rx="0.82332861"
       ry="0.82332867" />
    <ellipse
       ry="4.4608192"
       rx="4.4608188"
       cy="-10.23456"
       cx="165.01091"
       id="ellipse1266"
       style="fill:none;stroke:#000000;stroke-width:0.07836204;stroke-miterlimit:4;stroke-dasharray:none;stroke-opacity:1"
       transform="rotate(23.959341)" />
    <ellipse
       cy="-10.23456"
       cx="165.01091"
       id="ellipse1268"
       style="fill:none;stroke:#000000;stroke-width:0.05334273;stroke-miterlimit:4;stroke-dasharray:none;stroke-opacity:1"
       rx="0.82332861"
       ry="0.82332867"
       transform="rotate(23.959341)" />
    <ellipse
       style="fill:none;stroke:#000000;stroke-width:0.07836204;stroke-miterlimit:4;stroke-dasharray:none;stroke-opacity:1"
       id="ellipse1270"
       cx="175.20203"
       cy="-10.423288"
       rx="4.4608188"
       ry="4.4608192"
       transform="rotate(23.959341)" />
    <ellipse
       ry="0.82332867"
       rx="0.82332861"
       style="fill:none;stroke:#000000;stroke-width:0.05334273;stroke-miterlimit:4;stroke-dasharray:none;stroke-opacity:1"
       id="ellipse1272"
       cx="175.20203"
       cy="-10.423288"
       transform="rotate(23.959341)" />
    <ellipse
       transform="rotate(23.959341)"
       style="fill:none;stroke:#000000;stroke-width:0.07836204;stroke-miterlimit:4;stroke-dasharray:none;stroke-opacity:1"
       id="ellipse1274"
       cx="166.26141"
       cy="0.00014273475"
       rx="4.4608188"
       ry="4.4608192" />
    <ellipse
       transform="rotate(23.959341)"
       ry="0.82332867"
       rx="0.82332861"
       style="fill:none;stroke:#000000;stroke-width:0.05334273;stroke-miterlimit:4;stroke-dasharray:none;stroke-opacity:1"
       id="ellipse1276"
       cx="166.26141"
       cy="0.00014273475" />
    <ellipse
       transform="rotate(23.959341)"
       ry="4.4608192"
       rx="4.4608188"
       cy="-0.18858559"
       cx="176.45255"
       id="ellipse1278"
       style="fill:none;stroke:#000000;stroke-width:0.07836204;stroke-miterlimit:4;stroke-dasharray:none;stroke-opacity:1" />
    <ellipse
       transform="rotate(23.959341)"
       cy="-0.18858559"
       cx="176.45255"
       id="ellipse1280"
       style="fill:none;stroke:#000000;stroke-width:0.05334273;stroke-miterlimit:4;stroke-dasharray:none;stroke-opacity:1"
       rx="0.82332861"
       ry="0.82332867" />
    <g
       transform="rotate(-2.1675824,-849.32481,-4354.2482)"
       id="g1288">
      <g
         id="g1284"
         inkscape:label="Gear12"
         transform="translate(64.573807,83.476441)">
        <path
           id="path1282"
           style="fill:none;stroke:#000000;stroke-width:0.26458332"
           d="m 4.69348,-0.87664 0.18413,-0.03439 0.80295,0.16317 1.00306,0.63911 v 0.2175 L 5.68056,0.74786 4.87761,0.91103 4.69348,0.87664 4.503,1.58755 4.67965,1.64983 5.29344,2.19261 5.84256,3.24763 5.73381,3.43599 4.54558,3.48795 3.76862,3.22778 3.62635,3.10594 3.10594,3.62635 3.22778,3.76862 3.48795,4.54558 3.43599,5.73381 3.24763,5.84256 2.19261,5.29344 1.64983,4.67965 1.58755,4.503 0.87664,4.69348 0.91103,4.87761 0.74786,5.68056 0.10875,6.68362 h -0.2175 L -0.74786,5.68056 -0.91103,4.87761 -0.87664,4.69348 -1.58755,4.503 -1.64983,4.67965 -2.19261,5.29344 -3.24763,5.84256 -3.43599,5.73381 -3.48795,4.54558 -3.22778,3.76862 -3.10594,3.62635 -3.62635,3.10594 -3.76862,3.22778 -4.54558,3.48795 -5.73381,3.43599 -5.84256,3.24763 -5.29344,2.19261 -4.67965,1.64983 -4.503,1.58755 -4.69348,0.87664 -4.87761,0.91103 -5.68056,0.74786 -6.68362,0.10875 v -0.2175 l 1.00306,-0.63911 0.80295,-0.16317 0.18413,0.03439 0.19048,-0.71091 -0.17665,-0.06228 -0.61379,-0.54278 -0.54912,-1.05502 0.10875,-0.18836 1.18823,-0.05196 0.77696,0.26017 0.14227,0.12184 0.52041,-0.52041 -0.12184,-0.14227 -0.26017,-0.77696 0.05196,-1.18823 0.18836,-0.10875 1.05502,0.54912 0.54278,0.61379 0.06228,0.17665 0.71091,-0.19048 -0.03439,-0.18413 0.16317,-0.80295 0.63911,-1.00306 h 0.2175 l 0.63911,1.00306 0.16317,0.80295 -0.03439,0.18413 0.71091,0.19048 0.06228,-0.17665 0.54278,-0.61379 1.05502,-0.54912 0.18836,0.10875 0.05196,1.18823 -0.26017,0.77696 -0.12184,0.14227 0.52041,0.52041 0.14227,-0.12184 0.77696,-0.26017 1.18823,0.05196 0.10875,0.18836 -0.54912,1.05502 -0.61379,0.54278 -0.17665,0.06228 z"
           inkscape:connector-curvature="0" />
      </g>
      <circle
         style="fill:none;stroke:#000000;stroke-width:0.06275614;stroke-miterlimit:4;stroke-dasharray:none;stroke-opacity:1"
         id="circle1286"
         cx="64.573807"
         cy="83.47644"
         r="0.96862191" />
    </g>
    <g
       id="g1296"
       transform="rotate(-2.1675824,-453.98757,-4353.57)">
      <g
         transform="translate(64.573807,83.476441)"
         inkscape:label="Gear12"
         id="g1292">
        <path
           inkscape:connector-curvature="0"
           d="m 4.69348,-0.87664 0.18413,-0.03439 0.80295,0.16317 1.00306,0.63911 v 0.2175 L 5.68056,0.74786 4.87761,0.91103 4.69348,0.87664 4.503,1.58755 4.67965,1.64983 5.29344,2.19261 5.84256,3.24763 5.73381,3.43599 4.54558,3.48795 3.76862,3.22778 3.62635,3.10594 3.10594,3.62635 3.22778,3.76862 3.48795,4.54558 3.43599,5.73381 3.24763,5.84256 2.19261,5.29344 1.64983,4.67965 1.58755,4.503 0.87664,4.69348 0.91103,4.87761 0.74786,5.68056 0.10875,6.68362 h -0.2175 L -0.74786,5.68056 -0.91103,4.87761 -0.87664,4.69348 -1.58755,4.503 -1.64983,4.67965 -2.19261,5.29344 -3.24763,5.84256 -3.43599,5.73381 -3.48795,4.54558 -3.22778,3.76862 -3.10594,3.62635 -3.62635,3.10594 -3.76862,3.22778 -4.54558,3.48795 -5.73381,3.43599 -5.84256,3.24763 -5.29344,2.19261 -4.67965,1.64983 -4.503,1.58755 -4.69348,0.87664 -4.87761,0.91103 -5.68056,0.74786 -6.68362,0.10875 v -0.2175 l 1.00306,-0.63911 0.80295,-0.16317 0.18413,0.03439 0.19048,-0.71091 -0.17665,-0.06228 -0.61379,-0.54278 -0.54912,-1.05502 0.10875,-0.18836 1.18823,-0.05196 0.77696,0.26017 0.14227,0.12184 0.52041,-0.52041 -0.12184,-0.14227 -0.26017,-0.77696 0.05196,-1.18823 0.18836,-0.10875 1.05502,0.54912 0.54278,0.61379 0.06228,0.17665 0.71091,-0.19048 -0.03439,-0.18413 0.16317,-0.80295 0.63911,-1.00306 h 0.2175 l 0.63911,1.00306 0.16317,0.80295 -0.03439,0.18413 0.71091,0.19048 0.06228,-0.17665 0.54278,-0.61379 1.05502,-0.54912 0.18836,0.10875 0.05196,1.18823 -0.26017,0.77696 -0.12184,0.14227 0.52041,0.52041 0.14227,-0.12184 0.77696,-0.26017 1.18823,0.05196 0.10875,0.18836 -0.54912,1.05502 -0.61379,0.54278 -0.17665,0.06228 z"
           style="fill:none;stroke:#000000;stroke-width:0.26458332"
           id="path1290" />
      </g>
      <circle
         r="0.96862191"
         cy="83.47644"
         cx="64.573807"
         id="circle1294"
         style="fill:none;stroke:#000000;stroke-width:0.06275614;stroke-miterlimit:4;stroke-dasharray:none;stroke-opacity:1" />
    </g>
    <g
       id="g1304"
       transform="rotate(-2.1675824,-850.00299,-3958.9107)">
      <g
         transform="translate(64.573807,83.476441)"
         inkscape:label="Gear12"
         id="g1300">
        <path
           inkscape:connector-curvature="0"
           d="m 4.69348,-0.87664 0.18413,-0.03439 0.80295,0.16317 1.00306,0.63911 v 0.2175 L 5.68056,0.74786 4.87761,0.91103 4.69348,0.87664 4.503,1.58755 4.67965,1.64983 5.29344,2.19261 5.84256,3.24763 5.73381,3.43599 4.54558,3.48795 3.76862,3.22778 3.62635,3.10594 3.10594,3.62635 3.22778,3.76862 3.48795,4.54558 3.43599,5.73381 3.24763,5.84256 2.19261,5.29344 1.64983,4.67965 1.58755,4.503 0.87664,4.69348 0.91103,4.87761 0.74786,5.68056 0.10875,6.68362 h -0.2175 L -0.74786,5.68056 -0.91103,4.87761 -0.87664,4.69348 -1.58755,4.503 -1.64983,4.67965 -2.19261,5.29344 -3.24763,5.84256 -3.43599,5.73381 -3.48795,4.54558 -3.22778,3.76862 -3.10594,3.62635 -3.62635,3.10594 -3.76862,3.22778 -4.54558,3.48795 -5.73381,3.43599 -5.84256,3.24763 -5.29344,2.19261 -4.67965,1.64983 -4.503,1.58755 -4.69348,0.87664 -4.87761,0.91103 -5.68056,0.74786 -6.68362,0.10875 v -0.2175 l 1.00306,-0.63911 0.80295,-0.16317 0.18413,0.03439 0.19048,-0.71091 -0.17665,-0.06228 -0.61379,-0.54278 -0.54912,-1.05502 0.10875,-0.18836 1.18823,-0.05196 0.77696,0.26017 0.14227,0.12184 0.52041,-0.52041 -0.12184,-0.14227 -0.26017,-0.77696 0.05196,-1.18823 0.18836,-0.10875 1.05502,0.54912 0.54278,0.61379 0.06228,0.17665 0.71091,-0.19048 -0.03439,-0.18413 0.16317,-0.80295 0.63911,-1.00306 h 0.2175 l 0.63911,1.00306 0.16317,0.80295 -0.03439,0.18413 0.71091,0.19048 0.06228,-0.17665 0.54278,-0.61379 1.05502,-0.54912 0.18836,0.10875 0.05196,1.18823 -0.26017,0.77696 -0.12184,0.14227 0.52041,0.52041 0.14227,-0.12184 0.77696,-0.26017 1.18823,0.05196 0.10875,0.18836 -0.54912,1.05502 -0.61379,0.54278 -0.17665,0.06228 z"
           style="fill:none;stroke:#000000;stroke-width:0.26458332"
           id="path1298" />
      </g>
      <circle
         r="0.96862191"
         cy="83.47644"
         cx="64.573807"
         id="circle1302"
         style="fill:none;stroke:#000000;stroke-width:0.06275614;stroke-miterlimit:4;stroke-dasharray:none;stroke-opacity:1" />
    </g>
    <g
       transform="rotate(-2.1675824,-454.66591,-3958.2324)"
       id="g1312">
      <g
         id="g1308"
         inkscape:label="Gear12"
         transform="translate(64.573807,83.476441)">
        <path
           id="path1306"
           style="fill:none;stroke:#000000;stroke-width:0.26458332"
           d="m 4.69348,-0.87664 0.18413,-0.03439 0.80295,0.16317 1.00306,0.63911 v 0.2175 L 5.68056,0.74786 4.87761,0.91103 4.69348,0.87664 4.503,1.58755 4.67965,1.64983 5.29344,2.19261 5.84256,3.24763 5.73381,3.43599 4.54558,3.48795 3.76862,3.22778 3.62635,3.10594 3.10594,3.62635 3.22778,3.76862 3.48795,4.54558 3.43599,5.73381 3.24763,5.84256 2.19261,5.29344 1.64983,4.67965 1.58755,4.503 0.87664,4.69348 0.91103,4.87761 0.74786,5.68056 0.10875,6.68362 h -0.2175 L -0.74786,5.68056 -0.91103,4.87761 -0.87664,4.69348 -1.58755,4.503 -1.64983,4.67965 -2.19261,5.29344 -3.24763,5.84256 -3.43599,5.73381 -3.48795,4.54558 -3.22778,3.76862 -3.10594,3.62635 -3.62635,3.10594 -3.76862,3.22778 -4.54558,3.48795 -5.73381,3.43599 -5.84256,3.24763 -5.29344,2.19261 -4.67965,1.64983 -4.503,1.58755 -4.69348,0.87664 -4.87761,0.91103 -5.68056,0.74786 -6.68362,0.10875 v -0.2175 l 1.00306,-0.63911 0.80295,-0.16317 0.18413,0.03439 0.19048,-0.71091 -0.17665,-0.06228 -0.61379,-0.54278 -0.54912,-1.05502 0.10875,-0.18836 1.18823,-0.05196 0.77696,0.26017 0.14227,0.12184 0.52041,-0.52041 -0.12184,-0.14227 -0.26017,-0.77696 0.05196,-1.18823 0.18836,-0.10875 1.05502,0.54912 0.54278,0.61379 0.06228,0.17665 0.71091,-0.19048 -0.03439,-0.18413 0.16317,-0.80295 0.63911,-1.00306 h 0.2175 l 0.63911,1.00306 0.16317,0.80295 -0.03439,0.18413 0.71091,0.19048 0.06228,-0.17665 0.54278,-0.61379 1.05502,-0.54912 0.18836,0.10875 0.05196,1.18823 -0.26017,0.77696 -0.12184,0.14227 0.52041,0.52041 0.14227,-0.12184 0.77696,-0.26017 1.18823,0.05196 0.10875,0.18836 -0.54912,1.05502 -0.61379,0.54278 -0.17665,0.06228 z"
           inkscape:connector-curvature="0" />
      </g>
      <circle
         style="fill:none;stroke:#000000;stroke-width:0.06275614;stroke-miterlimit:4;stroke-dasharray:none;stroke-opacity:1"
         id="circle1310"
         cx="64.573807"
         cy="83.47644"
         r="0.96862191" />
    </g>
    <path
       id="path1314"
       d="m 176.28511,81.612366 a 10.544516,10.544515 0 0 0 -4.33617,0.94723 l -0.41858,-0.425297 -0.52813,0.513662 -8.66356,6.637322 a 13.076937,11.342108 0 0 0 -5.80636,3.083533 10.117392,10.355546 0 0 0 -4.2385,8.408794 10.117392,10.355546 0 0 0 0.13591,1.61282 12.53851,10.536785 0 0 0 12.51241,9.91154 12.53851,10.536785 0 0 0 8.58708,-2.86856 13.076937,11.342108 0 0 0 4.64261,-5.10977 l 2.80913,-2.73006 a 10.544516,10.544515 0 0 0 4.6023,-4.473633 l 0.36019,-0.34985 -0.12816,-0.130223 a 10.544516,10.544515 0 0 0 1.01441,-4.482931 10.544516,10.544515 0 0 0 -10.54458,-10.544577 z"
       style="opacity:1;fill:none;fill-opacity:1;stroke:#0000ff;stroke-width:0.08087563;stroke-linejoin:round;stroke-miterlimit:4;stroke-dasharray:none;stroke-dashoffset:0;stroke-opacity:1"
       inkscape:connector-curvature="0" />
    <path
       sodipodi:type="star"
       style="fill:none;stroke:#000000;stroke-width:0.1;stroke-miterlimit:4;stroke-dasharray:none;stroke-opacity:1"
       id="path1316"
       sodipodi:sides="3"
       sodipodi:cx="66.228821"
       sodipodi:cy="4.0968013"
       sodipodi:r1="7.2101359"
       sodipodi:r2="3.605068"
       sodipodi:arg1="1.6092389"
       sodipodi:arg2="2.6564365"
       inkscape:flatsided="true"
       inkscape:rounded="0.32"
       inkscape:randomized="0.002"
       d="M 65.950327,11.301825 C 61.958187,11.145409 58.009138,3.6248714 60.140568,0.24895229 62.271997,-3.1269668 70.720136,-2.8074996 72.594739,0.7242541 74.469342,4.2560078 69.942467,11.458241 65.950327,11.301825 Z"
       inkscape:transform-center-x="-0.02944232"
       inkscape:transform-center-y="0.21499053"
       transform="matrix(0.49056897,0,0,0.42570675,159.79544,75.809054)" />
    <path
       transform="matrix(0.37245946,-0.3192677,0.27705465,0.32321349,174.95076,88.905793)"
       inkscape:transform-center-y="-0.13544276"
       inkscape:transform-center-x="0.22467883"
       d="M 65.950327,11.301825 C 61.958187,11.145409 58.009138,3.6248714 60.140568,0.24895229 62.271997,-3.1269668 70.720136,-2.8074996 72.594739,0.7242541 74.469342,4.2560078 69.942467,11.458241 65.950327,11.301825 Z"
       inkscape:randomized="0.002"
       inkscape:rounded="0.32"
       inkscape:flatsided="true"
       sodipodi:arg2="2.6564365"
       sodipodi:arg1="1.6092389"
       sodipodi:r2="3.605068"
       sodipodi:r1="7.2101359"
       sodipodi:cy="4.0968013"
       sodipodi:cx="66.228821"
       sodipodi:sides="3"
       id="path1318"
       style="fill:none;stroke:#000000;stroke-width:0.1;stroke-miterlimit:4;stroke-dasharray:none;stroke-opacity:1"
       sodipodi:type="star" />
    <path
       sodipodi:type="star"
       style="fill:none;stroke:#000000;stroke-width:0.1;stroke-miterlimit:4;stroke-dasharray:none;stroke-opacity:1"
       id="path1320"
       sodipodi:sides="3"
       sodipodi:cx="66.228821"
       sodipodi:cy="4.0968013"
       sodipodi:r1="7.2101359"
       sodipodi:r2="3.605068"
       sodipodi:arg1="1.6092389"
       sodipodi:arg2="2.6564365"
       inkscape:flatsided="true"
       inkscape:rounded="0.32"
       inkscape:randomized="0.002"
       d="M 65.950327,11.301825 C 61.958187,11.145409 58.009138,3.6248714 60.140568,0.24895229 62.271997,-3.1269668 70.720136,-2.8074996 72.594739,0.7242541 74.469342,4.2560078 69.942467,11.458241 65.950327,11.301825 Z"
       inkscape:transform-center-x="-0.2246832"
       inkscape:transform-center-y="-0.13544276"
       transform="matrix(-0.37245946,-0.3192677,-0.27705465,0.32321349,208.55952,88.905793)" />
    <rect
       style="fill:none;stroke:#000000;stroke-width:0.06752115;stroke-miterlimit:4;stroke-dasharray:none;stroke-opacity:1"
       id="rect1322"
       width="1.9324789"
       height="3.9324789"
       x="191.23451"
       y="59.361633"
       rx="0.34132305" />
    <rect
       rx="0.34132305"
       y="-47.148228"
       x="200.31514"
       height="3.9324789"
       width="1.9324789"
       id="rect1324"
       style="fill:none;stroke:#000000;stroke-width:0.06752115;stroke-miterlimit:4;stroke-dasharray:none;stroke-opacity:1"
       transform="rotate(29.946449)" />
    <rect
       transform="matrix(-0.86649235,0.49919036,0.49919036,0.86649235,0,0)"
       style="fill:none;stroke:#000000;stroke-width:0.06752115;stroke-miterlimit:4;stroke-dasharray:none;stroke-opacity:1"
       id="rect1326"
       width="1.9324789"
       height="3.9324789"
       x="-132.7657"
       y="144.74121"
       rx="0.34132305" />
    <path
       id="path2270"
       d="M 66.963029,8.6762053 A 59.957011,59.957011 0 0 0 7.0059686,68.633268 59.957011,59.957011 0 0 0 66.963029,128.59032 59.957011,59.957011 0 0 0 126.9201,68.633268 59.957011,59.957011 0 0 0 66.963029,8.6762053 Z"
       style="fill:none;fill-opacity:1;stroke:#000000;stroke-width:0.11455153;stroke-miterlimit:4;stroke-dasharray:none;stroke-opacity:1"
       inkscape:connector-curvature="0" />
    <path
       inkscape:connector-curvature="0"
       style="fill:none;fill-opacity:1;stroke:#000000;stroke-width:0.11455153;stroke-miterlimit:4;stroke-dasharray:none;stroke-opacity:1"
       d="m 66.962819,13.672677 a 54.960593,54.960593 0 0 0 -27.15958,7.291545 5.9573522,6.1955042 0 0 1 2.32699,4.902543 5.9573522,6.1955042 0 0 1 -0.262,1.813325 l 0.0904,0.134876 -0.17673,0.117306 a 5.9573522,6.1955042 0 0 1 -5.60896,4.129979 5.9573522,6.1955042 0 0 1 -4.7563,-2.474783 5.9477586,5.9477586 0 0 1 -1.07125,-1.770951 54.960593,54.960593 0 0 0 -18.01957,35.121371 5.9477586,5.9477586 0 0 1 1.41697,-0.177253 5.9477586,5.9477586 0 0 1 5.94795,5.947958 5.9477586,5.9477586 0 0 1 -5.94795,5.947442 5.9477586,5.9477586 0 0 1 -1.37356,-0.167431 54.960593,54.960593 0 0 0 6.60941,20.711395 l 25.27908,-20.314005 a 9.641524,15.595326 44.629317 0 1 5.89163,-10.662914 9.641524,15.595326 44.629317 0 1 8.42997,-5.4684 16.810532,10.388456 43.70683 0 1 0.007,-0.01809 v 0.01085 h 15.09417 c 0.2251,-0.02302 0.45386,-0.03514 0.68523,-0.03514 h 3.23236 c 3.65625,0 6.5996,2.943352 6.5996,6.599597 v 18.375622 h -0.12816 v 4.258657 2.946071 h 20.333911 a 10.716844,15.718038 77.986476 0 1 2.6324,4.33927 10.716844,15.718038 77.986476 0 1 -1.94459,7.202153 l 2.65617,2.94969 a 54.960593,54.960593 0 0 0 13.89941,-31.399641 5.9477586,5.9477586 0 0 1 -1.5291,0.203089 5.9477586,5.9477586 0 0 1 -5.94744,-5.947958 5.9477586,5.9477586 0 0 1 5.94744,-5.947439 5.9477586,5.9477586 0 0 1 1.39991,0.174149 54.960593,54.960593 0 0 0 -19.60397,-36.07325 6.4281626,5.5946307 0 0 1 -1.68465,2.091344 5.9477586,5.9477586 0 0 1 -4.005961,1.567347 5.9477586,5.9477586 0 0 1 -0.47646,-0.02377 l -0.21704,0.324527 -0.83716,-0.547253 a 6.4281626,5.5946307 0 0 1 -5.17177,-5.48597 6.4281626,5.5946307 0 0 1 2.51147,-4.431254 5.9477586,5.9477586 0 0 1 0.0253,-0.02739 54.960593,54.960593 0 0 0 -25.09459,-6.187219 z"
       id="path2272" />
    <path
       inkscape:connector-curvature="0"
       style="fill:none;fill-opacity:1;stroke:#000000;stroke-width:0.11455153;stroke-miterlimit:4;stroke-dasharray:none;stroke-opacity:1"
       d="m 64.884909,104.23614 -11.26288,12.22458 a 8.6296195,6.6325307 0 0 1 0.005,0.078 8.6296195,6.6325307 0 0 1 -2.50475,4.66483 54.960593,54.960593 0 0 0 15.84037,2.39003 54.960593,54.960593 0 0 0 25.73952,-6.48281 5.9477586,5.9477586 0 0 1 -2.02779,-4.46639 5.9477586,5.9477586 0 0 1 0.73639,-2.86546 l -0.32814,-0.36432 c -0.0251,-0.0109 -0.0499,-0.0241 -0.0749,-0.0351 a 12.919335,15.994922 66.02428 0 1 -12.95114,-5.14335 z"
       id="path2274" />
    <rect
       rx="2.761517"
       transform="rotate(90)"
       y="-101.35312"
       x="95.363174"
       height="17.123055"
       width="6.5811234"
       id="rect2276"
       style="fill:none;stroke:#000000;stroke-width:0.14105062;stroke-miterlimit:4;stroke-dasharray:none;stroke-opacity:1" />
    <circle
       style="fill:none;fill-rule:evenodd;stroke:#000000;stroke-width:0.08800795;stroke-miterlimit:4;stroke-dasharray:none;stroke-opacity:1"
       id="circle2278"
       cx="-67.383759"
       cy="68.155243"
       transform="scale(-1,1)"
       r="0.95599604" />
    <circle
       transform="rotate(-3.2870846)"
       r="0.96862191"
       cy="29.615654"
       cx="35.16703"
       id="circle2280"
       style="fill:none;stroke:#000000;stroke-width:0.06275614;stroke-miterlimit:4;stroke-dasharray:none;stroke-opacity:1" />
    <circle
       style="fill:none;stroke:#000000;stroke-width:0.06275614;stroke-miterlimit:4;stroke-dasharray:none;stroke-opacity:1"
       id="circle2282"
       cx="94.983124"
       cy="26.024317"
       r="0.96862191" />
    <circle
       r="0.96862191"
       cy="68.633324"
       cx="117.95312"
       id="circle2284"
       style="fill:none;stroke:#000000;stroke-width:0.06275614;stroke-miterlimit:4;stroke-dasharray:none;stroke-opacity:1" />
    <circle
       style="fill:none;stroke:#000000;stroke-width:0.06275614;stroke-miterlimit:4;stroke-dasharray:none;stroke-opacity:1"
       id="circle2286"
       cx="16.024126"
       cy="68.633324"
       r="0.96862191" />
    <circle
       r="0.96862191"
       cy="111.22032"
       cx="94.983124"
       id="circle2288"
       style="fill:none;stroke:#000000;stroke-width:0.06275614;stroke-miterlimit:4;stroke-dasharray:none;stroke-opacity:1" />
    <circle
       transform="rotate(-3.2870846)"
       style="fill:none;stroke:#000000;stroke-width:0.06275614;stroke-miterlimit:4;stroke-dasharray:none;stroke-opacity:1"
       id="circle2290"
       cx="42.449181"
       cy="119.08066"
       r="0.96862191" />
    <g
       transform="rotate(-2.1675824,-1340.6893,-254.32389)"
       id="g2298">
      <g
         id="g2294"
         inkscape:label="Gear12"
         transform="translate(64.573807,83.476441)">
        <path
           id="path2292"
           style="fill:none;stroke:#000000;stroke-width:0.26458332"
           d="m 4.69348,-0.87664 0.18413,-0.03439 0.80295,0.16317 1.00306,0.63911 v 0.2175 L 5.68056,0.74786 4.87761,0.91103 4.69348,0.87664 4.503,1.58755 4.67965,1.64983 5.29344,2.19261 5.84256,3.24763 5.73381,3.43599 4.54558,3.48795 3.76862,3.22778 3.62635,3.10594 3.10594,3.62635 3.22778,3.76862 3.48795,4.54558 3.43599,5.73381 3.24763,5.84256 2.19261,5.29344 1.64983,4.67965 1.58755,4.503 0.87664,4.69348 0.91103,4.87761 0.74786,5.68056 0.10875,6.68362 h -0.2175 L -0.74786,5.68056 -0.91103,4.87761 -0.87664,4.69348 -1.58755,4.503 -1.64983,4.67965 -2.19261,5.29344 -3.24763,5.84256 -3.43599,5.73381 -3.48795,4.54558 -3.22778,3.76862 -3.10594,3.62635 -3.62635,3.10594 -3.76862,3.22778 -4.54558,3.48795 -5.73381,3.43599 -5.84256,3.24763 -5.29344,2.19261 -4.67965,1.64983 -4.503,1.58755 -4.69348,0.87664 -4.87761,0.91103 -5.68056,0.74786 -6.68362,0.10875 v -0.2175 l 1.00306,-0.63911 0.80295,-0.16317 0.18413,0.03439 0.19048,-0.71091 -0.17665,-0.06228 -0.61379,-0.54278 -0.54912,-1.05502 0.10875,-0.18836 1.18823,-0.05196 0.77696,0.26017 0.14227,0.12184 0.52041,-0.52041 -0.12184,-0.14227 -0.26017,-0.77696 0.05196,-1.18823 0.18836,-0.10875 1.05502,0.54912 0.54278,0.61379 0.06228,0.17665 0.71091,-0.19048 -0.03439,-0.18413 0.16317,-0.80295 0.63911,-1.00306 h 0.2175 l 0.63911,1.00306 0.16317,0.80295 -0.03439,0.18413 0.71091,0.19048 0.06228,-0.17665 0.54278,-0.61379 1.05502,-0.54912 0.18836,0.10875 0.05196,1.18823 -0.26017,0.77696 -0.12184,0.14227 0.52041,0.52041 0.14227,-0.12184 0.77696,-0.26017 1.18823,0.05196 0.10875,0.18836 -0.54912,1.05502 -0.61379,0.54278 -0.17665,0.06228 z"
           inkscape:connector-curvature="0" />
      </g>
      <circle
         style="fill:none;stroke:#000000;stroke-width:0.06275614;stroke-miterlimit:4;stroke-dasharray:none;stroke-opacity:1"
         id="circle2296"
         cx="64.573807"
         cy="83.47644"
         r="0.96862191" />
    </g>
    <g
       id="g2306"
       transform="rotate(-2.1675824,-945.352,-253.64559)">
      <g
         transform="translate(64.573807,83.476441)"
         inkscape:label="Gear12"
         id="g2302">
        <path
           inkscape:connector-curvature="0"
           d="m 4.69348,-0.87664 0.18413,-0.03439 0.80295,0.16317 1.00306,0.63911 v 0.2175 L 5.68056,0.74786 4.87761,0.91103 4.69348,0.87664 4.503,1.58755 4.67965,1.64983 5.29344,2.19261 5.84256,3.24763 5.73381,3.43599 4.54558,3.48795 3.76862,3.22778 3.62635,3.10594 3.10594,3.62635 3.22778,3.76862 3.48795,4.54558 3.43599,5.73381 3.24763,5.84256 2.19261,5.29344 1.64983,4.67965 1.58755,4.503 0.87664,4.69348 0.91103,4.87761 0.74786,5.68056 0.10875,6.68362 h -0.2175 L -0.74786,5.68056 -0.91103,4.87761 -0.87664,4.69348 -1.58755,4.503 -1.64983,4.67965 -2.19261,5.29344 -3.24763,5.84256 -3.43599,5.73381 -3.48795,4.54558 -3.22778,3.76862 -3.10594,3.62635 -3.62635,3.10594 -3.76862,3.22778 -4.54558,3.48795 -5.73381,3.43599 -5.84256,3.24763 -5.29344,2.19261 -4.67965,1.64983 -4.503,1.58755 -4.69348,0.87664 -4.87761,0.91103 -5.68056,0.74786 -6.68362,0.10875 v -0.2175 l 1.00306,-0.63911 0.80295,-0.16317 0.18413,0.03439 0.19048,-0.71091 -0.17665,-0.06228 -0.61379,-0.54278 -0.54912,-1.05502 0.10875,-0.18836 1.18823,-0.05196 0.77696,0.26017 0.14227,0.12184 0.52041,-0.52041 -0.12184,-0.14227 -0.26017,-0.77696 0.05196,-1.18823 0.18836,-0.10875 1.05502,0.54912 0.54278,0.61379 0.06228,0.17665 0.71091,-0.19048 -0.03439,-0.18413 0.16317,-0.80295 0.63911,-1.00306 h 0.2175 l 0.63911,1.00306 0.16317,0.80295 -0.03439,0.18413 0.71091,0.19048 0.06228,-0.17665 0.54278,-0.61379 1.05502,-0.54912 0.18836,0.10875 0.05196,1.18823 -0.26017,0.77696 -0.12184,0.14227 0.52041,0.52041 0.14227,-0.12184 0.77696,-0.26017 1.18823,0.05196 0.10875,0.18836 -0.54912,1.05502 -0.61379,0.54278 -0.17665,0.06228 z"
           style="fill:none;stroke:#000000;stroke-width:0.26458332"
           id="path2300" />
      </g>
      <circle
         r="0.96862191"
         cy="83.47644"
         cx="64.573807"
         id="circle2304"
         style="fill:none;stroke:#000000;stroke-width:0.06275614;stroke-miterlimit:4;stroke-dasharray:none;stroke-opacity:1" />
    </g>
    <g
       id="g2314"
       transform="rotate(-2.1675824,-1341.3675,141.01361)">
      <g
         transform="translate(64.573807,83.476441)"
         inkscape:label="Gear12"
         id="g2310">
        <path
           inkscape:connector-curvature="0"
           d="m 4.69348,-0.87664 0.18413,-0.03439 0.80295,0.16317 1.00306,0.63911 v 0.2175 L 5.68056,0.74786 4.87761,0.91103 4.69348,0.87664 4.503,1.58755 4.67965,1.64983 5.29344,2.19261 5.84256,3.24763 5.73381,3.43599 4.54558,3.48795 3.76862,3.22778 3.62635,3.10594 3.10594,3.62635 3.22778,3.76862 3.48795,4.54558 3.43599,5.73381 3.24763,5.84256 2.19261,5.29344 1.64983,4.67965 1.58755,4.503 0.87664,4.69348 0.91103,4.87761 0.74786,5.68056 0.10875,6.68362 h -0.2175 L -0.74786,5.68056 -0.91103,4.87761 -0.87664,4.69348 -1.58755,4.503 -1.64983,4.67965 -2.19261,5.29344 -3.24763,5.84256 -3.43599,5.73381 -3.48795,4.54558 -3.22778,3.76862 -3.10594,3.62635 -3.62635,3.10594 -3.76862,3.22778 -4.54558,3.48795 -5.73381,3.43599 -5.84256,3.24763 -5.29344,2.19261 -4.67965,1.64983 -4.503,1.58755 -4.69348,0.87664 -4.87761,0.91103 -5.68056,0.74786 -6.68362,0.10875 v -0.2175 l 1.00306,-0.63911 0.80295,-0.16317 0.18413,0.03439 0.19048,-0.71091 -0.17665,-0.06228 -0.61379,-0.54278 -0.54912,-1.05502 0.10875,-0.18836 1.18823,-0.05196 0.77696,0.26017 0.14227,0.12184 0.52041,-0.52041 -0.12184,-0.14227 -0.26017,-0.77696 0.05196,-1.18823 0.18836,-0.10875 1.05502,0.54912 0.54278,0.61379 0.06228,0.17665 0.71091,-0.19048 -0.03439,-0.18413 0.16317,-0.80295 0.63911,-1.00306 h 0.2175 l 0.63911,1.00306 0.16317,0.80295 -0.03439,0.18413 0.71091,0.19048 0.06228,-0.17665 0.54278,-0.61379 1.05502,-0.54912 0.18836,0.10875 0.05196,1.18823 -0.26017,0.77696 -0.12184,0.14227 0.52041,0.52041 0.14227,-0.12184 0.77696,-0.26017 1.18823,0.05196 0.10875,0.18836 -0.54912,1.05502 -0.61379,0.54278 -0.17665,0.06228 z"
           style="fill:none;stroke:#000000;stroke-width:0.26458332"
           id="path2308" />
      </g>
      <circle
         r="0.96862191"
         cy="83.47644"
         cx="64.573807"
         id="circle2312"
         style="fill:none;stroke:#000000;stroke-width:0.06275614;stroke-miterlimit:4;stroke-dasharray:none;stroke-opacity:1" />
    </g>
    <g
       transform="rotate(-2.1675824,-946.03033,141.69181)"
       id="g2322">
      <g
         id="g2318"
         inkscape:label="Gear12"
         transform="translate(64.573807,83.476441)">
        <path
           id="path2316"
           style="fill:none;stroke:#000000;stroke-width:0.26458332"
           d="m 4.69348,-0.87664 0.18413,-0.03439 0.80295,0.16317 1.00306,0.63911 v 0.2175 L 5.68056,0.74786 4.87761,0.91103 4.69348,0.87664 4.503,1.58755 4.67965,1.64983 5.29344,2.19261 5.84256,3.24763 5.73381,3.43599 4.54558,3.48795 3.76862,3.22778 3.62635,3.10594 3.10594,3.62635 3.22778,3.76862 3.48795,4.54558 3.43599,5.73381 3.24763,5.84256 2.19261,5.29344 1.64983,4.67965 1.58755,4.503 0.87664,4.69348 0.91103,4.87761 0.74786,5.68056 0.10875,6.68362 h -0.2175 L -0.74786,5.68056 -0.91103,4.87761 -0.87664,4.69348 -1.58755,4.503 -1.64983,4.67965 -2.19261,5.29344 -3.24763,5.84256 -3.43599,5.73381 -3.48795,4.54558 -3.22778,3.76862 -3.10594,3.62635 -3.62635,3.10594 -3.76862,3.22778 -4.54558,3.48795 -5.73381,3.43599 -5.84256,3.24763 -5.29344,2.19261 -4.67965,1.64983 -4.503,1.58755 -4.69348,0.87664 -4.87761,0.91103 -5.68056,0.74786 -6.68362,0.10875 v -0.2175 l 1.00306,-0.63911 0.80295,-0.16317 0.18413,0.03439 0.19048,-0.71091 -0.17665,-0.06228 -0.61379,-0.54278 -0.54912,-1.05502 0.10875,-0.18836 1.18823,-0.05196 0.77696,0.26017 0.14227,0.12184 0.52041,-0.52041 -0.12184,-0.14227 -0.26017,-0.77696 0.05196,-1.18823 0.18836,-0.10875 1.05502,0.54912 0.54278,0.61379 0.06228,0.17665 0.71091,-0.19048 -0.03439,-0.18413 0.16317,-0.80295 0.63911,-1.00306 h 0.2175 l 0.63911,1.00306 0.16317,0.80295 -0.03439,0.18413 0.71091,0.19048 0.06228,-0.17665 0.54278,-0.61379 1.05502,-0.54912 0.18836,0.10875 0.05196,1.18823 -0.26017,0.77696 -0.12184,0.14227 0.52041,0.52041 0.14227,-0.12184 0.77696,-0.26017 1.18823,0.05196 0.10875,0.18836 -0.54912,1.05502 -0.61379,0.54278 -0.17665,0.06228 z"
           inkscape:connector-curvature="0" />
      </g>
      <circle
         style="fill:none;stroke:#000000;stroke-width:0.06275614;stroke-miterlimit:4;stroke-dasharray:none;stroke-opacity:1"
         id="circle2320"
         cx="64.573807"
         cy="83.47644"
         r="0.96862191" />
    </g>
    <ellipse
       transform="rotate(23.959341)"
       style="fill:none;stroke:#000000;stroke-width:0.07836204;stroke-miterlimit:4;stroke-dasharray:none;stroke-opacity:1"
       id="ellipse2324"
       cx="49.912758"
       cy="21.626667"
       rx="4.4608188"
       ry="4.4608192" />
    <ellipse
       transform="rotate(23.959341)"
       ry="0.82332867"
       rx="0.82332861"
       style="fill:none;stroke:#000000;stroke-width:0.05334273;stroke-miterlimit:4;stroke-dasharray:none;stroke-opacity:1"
       id="ellipse2326"
       cx="49.912758"
       cy="21.626667" />
    <ellipse
       transform="rotate(23.959341)"
       ry="4.4608192"
       rx="4.4608188"
       cy="21.437939"
       cx="60.103874"
       id="ellipse2328"
       style="fill:none;stroke:#000000;stroke-width:0.07836204;stroke-miterlimit:4;stroke-dasharray:none;stroke-opacity:1" />
    <ellipse
       transform="rotate(23.959341)"
       cy="21.437939"
       cx="60.103874"
       id="ellipse2330"
       style="fill:none;stroke:#000000;stroke-width:0.05334273;stroke-miterlimit:4;stroke-dasharray:none;stroke-opacity:1"
       rx="0.82332861"
       ry="0.82332867" />
    <ellipse
       ry="4.4608192"
       rx="4.4608188"
       cy="31.596069"
       cx="50.888969"
       id="ellipse2332"
       style="fill:none;stroke:#000000;stroke-width:0.07836204;stroke-miterlimit:4;stroke-dasharray:none;stroke-opacity:1"
       transform="rotate(23.959341)" />
    <ellipse
       cy="31.596069"
       cx="50.888969"
       id="ellipse2334"
       style="fill:none;stroke:#000000;stroke-width:0.05334273;stroke-miterlimit:4;stroke-dasharray:none;stroke-opacity:1"
       rx="0.82332861"
       ry="0.82332867"
       transform="rotate(23.959341)" />
    <ellipse
       style="fill:none;stroke:#000000;stroke-width:0.07836204;stroke-miterlimit:4;stroke-dasharray:none;stroke-opacity:1"
       id="ellipse2336"
       cx="61.080086"
       cy="31.407341"
       rx="4.4608188"
       ry="4.4608192"
       transform="rotate(23.959341)" />
    <ellipse
       ry="0.82332867"
       rx="0.82332861"
       style="fill:none;stroke:#000000;stroke-width:0.05334273;stroke-miterlimit:4;stroke-dasharray:none;stroke-opacity:1"
       id="ellipse2338"
       cx="61.080086"
       cy="31.407341"
       transform="rotate(23.959341)" />
    <ellipse
       transform="rotate(23.959341)"
       style="fill:none;stroke:#000000;stroke-width:0.07836204;stroke-miterlimit:4;stroke-dasharray:none;stroke-opacity:1"
       id="ellipse2340"
       cx="51.325554"
       cy="41.574486"
       rx="4.4608188"
       ry="4.4608192" />
    <ellipse
       transform="rotate(23.959341)"
       ry="0.82332867"
       rx="0.82332861"
       style="fill:none;stroke:#000000;stroke-width:0.05334273;stroke-miterlimit:4;stroke-dasharray:none;stroke-opacity:1"
       id="ellipse2342"
       cx="51.325554"
       cy="41.574486" />
    <ellipse
       transform="rotate(23.959341)"
       ry="4.4608192"
       rx="4.4608188"
       cy="41.385757"
       cx="61.51667"
       id="ellipse2344"
       style="fill:none;stroke:#000000;stroke-width:0.07836204;stroke-miterlimit:4;stroke-dasharray:none;stroke-opacity:1" />
    <ellipse
       transform="rotate(23.959341)"
       cy="41.385757"
       cx="61.51667"
       id="ellipse2346"
       style="fill:none;stroke:#000000;stroke-width:0.05334273;stroke-miterlimit:4;stroke-dasharray:none;stroke-opacity:1"
       rx="0.82332861"
       ry="0.82332867" />
    <ellipse
       ry="4.4608192"
       rx="4.4608188"
       cy="51.809189"
       cx="52.576057"
       id="ellipse2348"
       style="fill:none;stroke:#000000;stroke-width:0.07836204;stroke-miterlimit:4;stroke-dasharray:none;stroke-opacity:1"
       transform="rotate(23.959341)" />
    <ellipse
       cy="51.809189"
       cx="52.576057"
       id="ellipse2350"
       style="fill:none;stroke:#000000;stroke-width:0.05334273;stroke-miterlimit:4;stroke-dasharray:none;stroke-opacity:1"
       rx="0.82332861"
       ry="0.82332867"
       transform="rotate(23.959341)" />
    <ellipse
       style="fill:none;stroke:#000000;stroke-width:0.07836204;stroke-miterlimit:4;stroke-dasharray:none;stroke-opacity:1"
       id="ellipse2352"
       cx="62.767189"
       cy="51.620461"
       rx="4.4608188"
       ry="4.4608192"
       transform="rotate(23.959341)" />
    <ellipse
       ry="0.82332867"
       rx="0.82332861"
       style="fill:none;stroke:#000000;stroke-width:0.05334273;stroke-miterlimit:4;stroke-dasharray:none;stroke-opacity:1"
       id="ellipse2354"
       cx="62.767189"
       cy="51.620461"
       transform="rotate(23.959341)" />
    <g
       id="g2362"
       transform="rotate(-2.1675824,-880.63959,-1051.8116)">
      <g
         transform="translate(64.573807,83.476441)"
         inkscape:label="Gear12"
         id="g2358">
        <path
           inkscape:connector-curvature="0"
           d="m 4.69348,-0.87664 0.18413,-0.03439 0.80295,0.16317 1.00306,0.63911 v 0.2175 L 5.68056,0.74786 4.87761,0.91103 4.69348,0.87664 4.503,1.58755 4.67965,1.64983 5.29344,2.19261 5.84256,3.24763 5.73381,3.43599 4.54558,3.48795 3.76862,3.22778 3.62635,3.10594 3.10594,3.62635 3.22778,3.76862 3.48795,4.54558 3.43599,5.73381 3.24763,5.84256 2.19261,5.29344 1.64983,4.67965 1.58755,4.503 0.87664,4.69348 0.91103,4.87761 0.74786,5.68056 0.10875,6.68362 h -0.2175 L -0.74786,5.68056 -0.91103,4.87761 -0.87664,4.69348 -1.58755,4.503 -1.64983,4.67965 -2.19261,5.29344 -3.24763,5.84256 -3.43599,5.73381 -3.48795,4.54558 -3.22778,3.76862 -3.10594,3.62635 -3.62635,3.10594 -3.76862,3.22778 -4.54558,3.48795 -5.73381,3.43599 -5.84256,3.24763 -5.29344,2.19261 -4.67965,1.64983 -4.503,1.58755 -4.69348,0.87664 -4.87761,0.91103 -5.68056,0.74786 -6.68362,0.10875 v -0.2175 l 1.00306,-0.63911 0.80295,-0.16317 0.18413,0.03439 0.19048,-0.71091 -0.17665,-0.06228 -0.61379,-0.54278 -0.54912,-1.05502 0.10875,-0.18836 1.18823,-0.05196 0.77696,0.26017 0.14227,0.12184 0.52041,-0.52041 -0.12184,-0.14227 -0.26017,-0.77696 0.05196,-1.18823 0.18836,-0.10875 1.05502,0.54912 0.54278,0.61379 0.06228,0.17665 0.71091,-0.19048 -0.03439,-0.18413 0.16317,-0.80295 0.63911,-1.00306 h 0.2175 l 0.63911,1.00306 0.16317,0.80295 -0.03439,0.18413 0.71091,0.19048 0.06228,-0.17665 0.54278,-0.61379 1.05502,-0.54912 0.18836,0.10875 0.05196,1.18823 -0.26017,0.77696 -0.12184,0.14227 0.52041,0.52041 0.14227,-0.12184 0.77696,-0.26017 1.18823,0.05196 0.10875,0.18836 -0.54912,1.05502 -0.61379,0.54278 -0.17665,0.06228 z"
           style="fill:none;stroke:#000000;stroke-width:0.26458332"
           id="path2356" />
      </g>
      <circle
         r="0.96862191"
         cy="83.47644"
         cx="64.573807"
         id="circle2360"
         style="fill:none;stroke:#000000;stroke-width:0.06275614;stroke-miterlimit:4;stroke-dasharray:none;stroke-opacity:1" />
    </g>
    <g
       transform="rotate(-2.1675824,-485.30235,-1051.1334)"
       id="g2370">
      <g
         id="g2366"
         inkscape:label="Gear12"
         transform="translate(64.573807,83.476441)">
        <path
           id="path2364"
           style="fill:none;stroke:#000000;stroke-width:0.26458332"
           d="m 4.69348,-0.87664 0.18413,-0.03439 0.80295,0.16317 1.00306,0.63911 v 0.2175 L 5.68056,0.74786 4.87761,0.91103 4.69348,0.87664 4.503,1.58755 4.67965,1.64983 5.29344,2.19261 5.84256,3.24763 5.73381,3.43599 4.54558,3.48795 3.76862,3.22778 3.62635,3.10594 3.10594,3.62635 3.22778,3.76862 3.48795,4.54558 3.43599,5.73381 3.24763,5.84256 2.19261,5.29344 1.64983,4.67965 1.58755,4.503 0.87664,4.69348 0.91103,4.87761 0.74786,5.68056 0.10875,6.68362 h -0.2175 L -0.74786,5.68056 -0.91103,4.87761 -0.87664,4.69348 -1.58755,4.503 -1.64983,4.67965 -2.19261,5.29344 -3.24763,5.84256 -3.43599,5.73381 -3.48795,4.54558 -3.22778,3.76862 -3.10594,3.62635 -3.62635,3.10594 -3.76862,3.22778 -4.54558,3.48795 -5.73381,3.43599 -5.84256,3.24763 -5.29344,2.19261 -4.67965,1.64983 -4.503,1.58755 -4.69348,0.87664 -4.87761,0.91103 -5.68056,0.74786 -6.68362,0.10875 v -0.2175 l 1.00306,-0.63911 0.80295,-0.16317 0.18413,0.03439 0.19048,-0.71091 -0.17665,-0.06228 -0.61379,-0.54278 -0.54912,-1.05502 0.10875,-0.18836 1.18823,-0.05196 0.77696,0.26017 0.14227,0.12184 0.52041,-0.52041 -0.12184,-0.14227 -0.26017,-0.77696 0.05196,-1.18823 0.18836,-0.10875 1.05502,0.54912 0.54278,0.61379 0.06228,0.17665 0.71091,-0.19048 -0.03439,-0.18413 0.16317,-0.80295 0.63911,-1.00306 h 0.2175 l 0.63911,1.00306 0.16317,0.80295 -0.03439,0.18413 0.71091,0.19048 0.06228,-0.17665 0.54278,-0.61379 1.05502,-0.54912 0.18836,0.10875 0.05196,1.18823 -0.26017,0.77696 -0.12184,0.14227 0.52041,0.52041 0.14227,-0.12184 0.77696,-0.26017 1.18823,0.05196 0.10875,0.18836 -0.54912,1.05502 -0.61379,0.54278 -0.17665,0.06228 z"
           inkscape:connector-curvature="0" />
      </g>
      <circle
         style="fill:none;stroke:#000000;stroke-width:0.06275614;stroke-miterlimit:4;stroke-dasharray:none;stroke-opacity:1"
         id="circle2368"
         cx="64.573807"
         cy="83.47644"
         r="0.96862191" />
    </g>
    <g
       transform="rotate(-2.1675824,-881.31777,-656.47409)"
       id="g2378">
      <g
         id="g2374"
         inkscape:label="Gear12"
         transform="translate(64.573807,83.476441)">
        <path
           id="path2372"
           style="fill:none;stroke:#000000;stroke-width:0.26458332"
           d="m 4.69348,-0.87664 0.18413,-0.03439 0.80295,0.16317 1.00306,0.63911 v 0.2175 L 5.68056,0.74786 4.87761,0.91103 4.69348,0.87664 4.503,1.58755 4.67965,1.64983 5.29344,2.19261 5.84256,3.24763 5.73381,3.43599 4.54558,3.48795 3.76862,3.22778 3.62635,3.10594 3.10594,3.62635 3.22778,3.76862 3.48795,4.54558 3.43599,5.73381 3.24763,5.84256 2.19261,5.29344 1.64983,4.67965 1.58755,4.503 0.87664,4.69348 0.91103,4.87761 0.74786,5.68056 0.10875,6.68362 h -0.2175 L -0.74786,5.68056 -0.91103,4.87761 -0.87664,4.69348 -1.58755,4.503 -1.64983,4.67965 -2.19261,5.29344 -3.24763,5.84256 -3.43599,5.73381 -3.48795,4.54558 -3.22778,3.76862 -3.10594,3.62635 -3.62635,3.10594 -3.76862,3.22778 -4.54558,3.48795 -5.73381,3.43599 -5.84256,3.24763 -5.29344,2.19261 -4.67965,1.64983 -4.503,1.58755 -4.69348,0.87664 -4.87761,0.91103 -5.68056,0.74786 -6.68362,0.10875 v -0.2175 l 1.00306,-0.63911 0.80295,-0.16317 0.18413,0.03439 0.19048,-0.71091 -0.17665,-0.06228 -0.61379,-0.54278 -0.54912,-1.05502 0.10875,-0.18836 1.18823,-0.05196 0.77696,0.26017 0.14227,0.12184 0.52041,-0.52041 -0.12184,-0.14227 -0.26017,-0.77696 0.05196,-1.18823 0.18836,-0.10875 1.05502,0.54912 0.54278,0.61379 0.06228,0.17665 0.71091,-0.19048 -0.03439,-0.18413 0.16317,-0.80295 0.63911,-1.00306 h 0.2175 l 0.63911,1.00306 0.16317,0.80295 -0.03439,0.18413 0.71091,0.19048 0.06228,-0.17665 0.54278,-0.61379 1.05502,-0.54912 0.18836,0.10875 0.05196,1.18823 -0.26017,0.77696 -0.12184,0.14227 0.52041,0.52041 0.14227,-0.12184 0.77696,-0.26017 1.18823,0.05196 0.10875,0.18836 -0.54912,1.05502 -0.61379,0.54278 -0.17665,0.06228 z"
           inkscape:connector-curvature="0" />
      </g>
      <circle
         style="fill:none;stroke:#000000;stroke-width:0.06275614;stroke-miterlimit:4;stroke-dasharray:none;stroke-opacity:1"
         id="circle2376"
         cx="64.573807"
         cy="83.47644"
         r="0.96862191" />
    </g>
    <g
       id="g2386"
       transform="rotate(-2.1675824,-485.98069,-655.79579)">
      <g
         transform="translate(64.573807,83.476441)"
         inkscape:label="Gear12"
         id="g2382">
        <path
           inkscape:connector-curvature="0"
           d="m 4.69348,-0.87664 0.18413,-0.03439 0.80295,0.16317 1.00306,0.63911 v 0.2175 L 5.68056,0.74786 4.87761,0.91103 4.69348,0.87664 4.503,1.58755 4.67965,1.64983 5.29344,2.19261 5.84256,3.24763 5.73381,3.43599 4.54558,3.48795 3.76862,3.22778 3.62635,3.10594 3.10594,3.62635 3.22778,3.76862 3.48795,4.54558 3.43599,5.73381 3.24763,5.84256 2.19261,5.29344 1.64983,4.67965 1.58755,4.503 0.87664,4.69348 0.91103,4.87761 0.74786,5.68056 0.10875,6.68362 h -0.2175 L -0.74786,5.68056 -0.91103,4.87761 -0.87664,4.69348 -1.58755,4.503 -1.64983,4.67965 -2.19261,5.29344 -3.24763,5.84256 -3.43599,5.73381 -3.48795,4.54558 -3.22778,3.76862 -3.10594,3.62635 -3.62635,3.10594 -3.76862,3.22778 -4.54558,3.48795 -5.73381,3.43599 -5.84256,3.24763 -5.29344,2.19261 -4.67965,1.64983 -4.503,1.58755 -4.69348,0.87664 -4.87761,0.91103 -5.68056,0.74786 -6.68362,0.10875 v -0.2175 l 1.00306,-0.63911 0.80295,-0.16317 0.18413,0.03439 0.19048,-0.71091 -0.17665,-0.06228 -0.61379,-0.54278 -0.54912,-1.05502 0.10875,-0.18836 1.18823,-0.05196 0.77696,0.26017 0.14227,0.12184 0.52041,-0.52041 -0.12184,-0.14227 -0.26017,-0.77696 0.05196,-1.18823 0.18836,-0.10875 1.05502,0.54912 0.54278,0.61379 0.06228,0.17665 0.71091,-0.19048 -0.03439,-0.18413 0.16317,-0.80295 0.63911,-1.00306 h 0.2175 l 0.63911,1.00306 0.16317,0.80295 -0.03439,0.18413 0.71091,0.19048 0.06228,-0.17665 0.54278,-0.61379 1.05502,-0.54912 0.18836,0.10875 0.05196,1.18823 -0.26017,0.77696 -0.12184,0.14227 0.52041,0.52041 0.14227,-0.12184 0.77696,-0.26017 1.18823,0.05196 0.10875,0.18836 -0.54912,1.05502 -0.61379,0.54278 -0.17665,0.06228 z"
           style="fill:none;stroke:#000000;stroke-width:0.26458332"
           id="path2380" />
      </g>
      <circle
         r="0.96862191"
         cy="83.47644"
         cx="64.573807"
         id="circle2384"
         style="fill:none;stroke:#000000;stroke-width:0.06275614;stroke-miterlimit:4;stroke-dasharray:none;stroke-opacity:1" />
    </g>
    <path
       inkscape:connector-curvature="0"
       style="opacity:1;fill:none;fill-opacity:1;stroke:#0000ff;stroke-width:0.08087563;stroke-linejoin:round;stroke-miterlimit:4;stroke-dasharray:none;stroke-dashoffset:0;stroke-opacity:1"
       d="m 51.356539,82.790937 a 10.544516,10.544515 0 0 0 -4.33617,0.94723 l -0.41858,-0.425297 -0.52813,0.513662 -8.66356,6.637322 a 13.076937,11.342108 0 0 0 -5.80636,3.083533 10.117392,10.355546 0 0 0 -4.2385,8.408793 10.117392,10.355546 0 0 0 0.13591,1.61282 12.53851,10.536785 0 0 0 12.51241,9.91154 12.53851,10.536785 0 0 0 8.58708,-2.86856 13.076937,11.342108 0 0 0 4.64261,-5.10977 l 2.80913,-2.73006 a 10.544516,10.544515 0 0 0 4.6023,-4.473632 l 0.36019,-0.34985 -0.12816,-0.130223 a 10.544516,10.544515 0 0 0 1.01441,-4.482931 10.544516,10.544515 0 0 0 -10.54458,-10.544577 z"
       id="path2388" />
    <path
       transform="matrix(0.49056897,0,0,0.42570675,34.866869,76.987625)"
       inkscape:transform-center-y="0.21499053"
       inkscape:transform-center-x="-0.02944232"
       d="M 65.950327,11.301825 C 61.958187,11.145409 58.009138,3.6248714 60.140568,0.24895229 62.271997,-3.1269668 70.720136,-2.8074996 72.594739,0.7242541 74.469342,4.2560078 69.942467,11.458241 65.950327,11.301825 Z"
       inkscape:randomized="0.002"
       inkscape:rounded="0.32"
       inkscape:flatsided="true"
       sodipodi:arg2="2.6564365"
       sodipodi:arg1="1.6092389"
       sodipodi:r2="3.605068"
       sodipodi:r1="7.2101359"
       sodipodi:cy="4.0968013"
       sodipodi:cx="66.228821"
       sodipodi:sides="3"
       id="path2390"
       style="fill:none;stroke:#000000;stroke-width:0.1;stroke-miterlimit:4;stroke-dasharray:none;stroke-opacity:1"
       sodipodi:type="star" />
    <path
       sodipodi:type="star"
       style="fill:none;stroke:#000000;stroke-width:0.1;stroke-miterlimit:4;stroke-dasharray:none;stroke-opacity:1"
       id="path2392"
       sodipodi:sides="3"
       sodipodi:cx="66.228821"
       sodipodi:cy="4.0968013"
       sodipodi:r1="7.2101359"
       sodipodi:r2="3.605068"
       sodipodi:arg1="1.6092389"
       sodipodi:arg2="2.6564365"
       inkscape:flatsided="true"
       inkscape:rounded="0.32"
       inkscape:randomized="0.002"
       d="M 65.950327,11.301825 C 61.958187,11.145409 58.009138,3.6248714 60.140568,0.24895229 62.271997,-3.1269668 70.720136,-2.8074996 72.594739,0.7242541 74.469342,4.2560078 69.942467,11.458241 65.950327,11.301825 Z"
       inkscape:transform-center-x="0.22467883"
       inkscape:transform-center-y="-0.13544276"
       transform="matrix(0.37245946,-0.3192677,0.27705465,0.32321349,50.022189,90.084364)" />
    <path
       transform="matrix(-0.37245946,-0.3192677,-0.27705465,0.32321349,83.630949,90.084364)"
       inkscape:transform-center-y="-0.13544276"
       inkscape:transform-center-x="-0.2246832"
       d="M 65.950327,11.301825 C 61.958187,11.145409 58.009138,3.6248714 60.140568,0.24895229 62.271997,-3.1269668 70.720136,-2.8074996 72.594739,0.7242541 74.469342,4.2560078 69.942467,11.458241 65.950327,11.301825 Z"
       inkscape:randomized="0.002"
       inkscape:rounded="0.32"
       inkscape:flatsided="true"
       sodipodi:arg2="2.6564365"
       sodipodi:arg1="1.6092389"
       sodipodi:r2="3.605068"
       sodipodi:r1="7.2101359"
       sodipodi:cy="4.0968013"
       sodipodi:cx="66.228821"
       sodipodi:sides="3"
       id="path2394"
       style="fill:none;stroke:#000000;stroke-width:0.1;stroke-miterlimit:4;stroke-dasharray:none;stroke-opacity:1"
       sodipodi:type="star" />
    <rect
       rx="0.34132305"
       y="60.540203"
       x="66.305939"
       height="3.9324789"
       width="1.9324789"
       id="rect2396"
       style="fill:none;stroke:#000000;stroke-width:0.06752115;stroke-miterlimit:4;stroke-dasharray:none;stroke-opacity:1" />
    <rect
       transform="rotate(29.946449)"
       style="fill:none;stroke:#000000;stroke-width:0.06752115;stroke-miterlimit:4;stroke-dasharray:none;stroke-opacity:1"
       id="rect2398"
       width="1.9324789"
       height="3.9324789"
       x="92.653824"
       y="16.236134"
       rx="0.34132305" />
    <rect
       rx="0.34132305"
       y="83.3993"
       x="-23.927719"
       height="3.9324789"
       width="1.9324789"
       id="rect2400"
       style="fill:none;stroke:#000000;stroke-width:0.06752115;stroke-miterlimit:4;stroke-dasharray:none;stroke-opacity:1"
       transform="matrix(-0.86649235,0.49919036,0.49919036,0.86649235,0,0)" />
  </g>
</svg>
